<svg width="712" height="670" viewBox="0 0 712 670" fill="none" xmlns="http://www.w3.org/2000/svg">
<g id="main">
<g id="homeImg 1" clip-path="url(#clip0_1_63)">
<path id="Vector" d="M516.326 380.018V565.013L547.27 615.443L549.625 619.279H671.722L674.189 380.018H516.326Z" fill="#E6E6E6"/>
<path id="Vector_2" opacity="0.1" d="M516.326 380.018V565.013L547.27 615.443L549.169 380.018H516.326Z" fill="black"/>
<path id="Vector_3" d="M221.566 375.084V560.08L190.622 610.51L188.267 614.345H66.17L63.703 375.084H221.566Z" fill="#E6E6E6"/>
<path id="Vector_4" opacity="0.1" d="M221.566 375.084V560.08L190.622 610.51L188.723 375.084H221.566Z" fill="black"/>
<path id="Vector_5" d="M711.188 371.385V382.484H47.67V366.451L109.335 334.385H656.923L711.188 371.385Z" fill="#E6E6E6"/>
<path id="Vector_6" opacity="0.1" d="M711.188 371.385V382.484H47.67V366.451L711.188 371.385Z" fill="black"/>
<path id="Vector_7" d="M142.635 426.883H113.035L100.702 418.25H156.201L142.635 426.883Z" fill="#3F3D56"/>
<path id="Vector_8" d="M142.635 462.649H113.035L100.702 454.016H156.201L142.635 462.649Z" fill="#3F3D56"/>
<path id="Vector_9" d="M142.635 513.215H113.035L100.702 504.581H156.201L142.635 513.215Z" fill="#3F3D56"/>
<path id="Vector_10" d="M142.635 563.78H113.035L100.702 555.147H156.201L142.635 563.78Z" fill="#3F3D56"/>
<path id="Vector_11" d="M595.257 431.816H624.857L637.19 423.183H581.691L595.257 431.816Z" fill="#3F3D56"/>
<path id="Vector_12" d="M595.257 467.582H624.857L637.19 458.949H581.691L595.257 467.582Z" fill="#3F3D56"/>
<path id="Vector_13" d="M595.257 518.148H624.857L637.19 509.515H581.691L595.257 518.148Z" fill="#3F3D56"/>
<path id="Vector_14" d="M595.257 568.713H624.857L637.19 560.08H581.691L595.257 568.713Z" fill="#3F3D56"/>
<path id="Vector_15" d="M615.414 120.456H366.228C364.991 120.456 363.765 120.7 362.622 121.173C361.478 121.647 360.439 122.341 359.564 123.216C358.689 124.091 357.995 125.13 357.522 126.274C357.048 127.417 356.804 128.643 356.805 129.88V297.738C356.804 298.975 357.048 300.201 357.522 301.344C357.995 302.488 358.689 303.527 359.564 304.402C360.439 305.277 361.478 305.971 362.622 306.445C363.765 306.918 364.991 307.162 366.228 307.162H460.821L457.277 329.788C457.277 329.788 437.025 340.547 451.265 340.864C465.505 341.18 532.593 340.864 532.593 340.864C532.593 340.864 545.567 340.864 524.998 329.472L521.664 307.162H615.414C616.651 307.162 617.877 306.918 619.02 306.445C620.164 305.971 621.203 305.277 622.078 304.402C622.953 303.527 623.647 302.488 624.121 301.344C624.594 300.201 624.838 298.975 624.838 297.738V129.88C624.838 128.643 624.594 127.417 624.121 126.274C623.647 125.13 622.953 124.091 622.078 123.216C621.203 122.341 620.164 121.647 619.02 121.173C617.877 120.7 616.651 120.456 615.414 120.456V120.456Z" fill="#3F3D56"/>
<path id="Vector_16" d="M615.819 130.424H365.823V270.295H615.819V130.424Z" fill="#F2F2F2"/>
<path id="Vector_17" d="M490.821 127.576C491.695 127.576 492.403 126.868 492.403 125.994C492.403 125.12 491.695 124.412 490.821 124.412C489.947 124.412 489.239 125.12 489.239 125.994C489.239 126.868 489.947 127.576 490.821 127.576Z" fill="#F2F2F2"/>
<path id="Vector_18" d="M490.821 300.358C494.142 300.358 496.834 297.666 496.834 294.346C496.834 291.025 494.142 288.333 490.821 288.333C487.5 288.333 484.809 291.025 484.809 294.346C484.809 297.666 487.5 300.358 490.821 300.358Z" fill="#F2F2F2"/>
<path id="Vector_19" d="M481.452 357.952V361.117H311.202V358.585L311.436 357.952L315.632 346.56H477.971L481.452 357.952Z" fill="#3F3D56"/>
<g id="mouse">
<path id="Vector_20" d="M546.97 354.854C546.659 356.18 545.489 357.579 542.843 358.901C533.35 363.648 514.046 357.636 514.046 357.636C514.046 357.636 499.173 355.104 499.173 348.459C499.59 348.173 500.026 347.914 500.477 347.683C504.468 345.572 517.702 340.361 541.167 347.904C542.896 348.447 544.44 349.458 545.628 350.827C546.154 351.344 546.55 351.979 546.783 352.679C547.016 353.379 547.08 354.124 546.97 354.854Z" fill="#3F3D56"/>
<path id="Vector_21" opacity="0.1" d="M546.97 354.854C535.35 359.306 524.992 359.639 514.363 352.256C510.343 349.284 505.476 347.681 500.477 347.683C504.468 345.572 517.702 340.361 541.167 347.904C542.896 348.447 544.44 349.458 545.628 350.827C546.154 351.344 546.55 351.979 546.783 352.679C547.016 353.379 547.08 354.124 546.97 354.854Z" fill="black"/>
<path id="Vector_22" d="M532.4 352.256C534.672 352.256 536.514 351.689 536.514 350.99C536.514 350.291 534.672 349.724 532.4 349.724C530.128 349.724 528.286 350.291 528.286 350.99C528.286 351.689 530.128 352.256 532.4 352.256Z" fill="#F2F2F2"/>
</g>
<path id="Vector_23" opacity="0.1" d="M481.452 357.952V361.117H311.202V358.585L311.436 357.952H481.452Z" fill="black"/>
<path id="Vector_24" d="M82.1377 74.9052C82.1377 74.9052 85.5911 103.684 72.9286 105.986C60.2661 108.288 84.4399 147.427 84.4399 147.427L141.997 154.334L128.183 108.288C128.183 108.288 118.974 104.835 124.73 81.812C130.485 58.7893 82.1377 74.9052 82.1377 74.9052Z" fill="#FFB8B8"/>
<path id="Vector_25" d="M47.028 569.318L51.633 632.631H75.806L68.9 569.318H47.028Z" fill="#FFB8B8"/>
<path id="Vector_26" d="M224.303 449.6L227.756 502.552L254.233 491.041L243.872 447.298L224.303 449.6Z" fill="#FFB8B8"/>
<path id="Vector_27" d="M29.761 327.58C29.761 327.58 30.9121 394.345 37.819 416.217C44.7259 438.089 43.5747 439.24 42.4236 442.693C41.2724 446.147 40.1213 443.844 40.1213 449.6C40.1213 455.356 37.819 546.295 40.1213 554.353C42.4235 562.411 33.2145 576.225 40.1213 577.376C47.0281 578.527 79.2599 577.376 80.411 570.469C81.5622 563.563 71.202 561.26 75.8065 556.656C80.4111 552.051 87.3179 457.658 87.3179 457.658L103.434 392.043L133.363 357.509H196.676L216.245 433.484C216.245 433.484 208.187 455.356 213.943 455.356C219.699 455.356 254.233 462.263 254.233 436.938C254.233 411.613 242.721 336.789 240.419 334.486C238.117 332.184 241.57 324.126 238.117 320.673C234.663 317.219 194.374 293.046 179.409 288.441C164.444 283.836 143.451 278.356 143.451 278.356L29.761 327.58Z" fill="#2F2E41"/>
<path id="shoe" d="M250.205 481.671C250.205 481.671 232.121 479.612 227.809 498.173C223.498 516.733 227.829 520.524 227.829 520.524C227.829 520.524 255.637 524.057 259.19 518.599C260.735 516.225 266.815 514.228 273.191 512.729C282.902 510.447 282.579 496.094 272.684 494.828C272.389 494.79 272.093 494.766 271.797 494.755C262.311 494.407 250.205 481.671 250.205 481.671Z" fill="#2F2E41"/>
<path id="Vector_28" d="M63.144 120.375C63.144 120.375 119.55 131.886 133.363 113.468C147.177 95.0501 152.933 165.269 152.933 165.269L159.839 238.942L149.479 279.232C149.479 279.232 95.3758 322.975 78.1087 326.428C60.8417 329.882 34.3655 332.184 34.3655 332.184C34.3655 332.184 42.4236 204.408 42.4236 202.106C42.4236 199.803 63.144 120.375 63.144 120.375Z" fill="#26A699"/>
<path id="Vector_29" d="M80.2983 98.7859C80.2983 98.7859 67.7485 91.5967 64.2951 98.5035C60.8417 105.41 28.6099 122.677 25.1565 122.677C21.7031 122.677 32.0633 218.222 27.4587 229.733C22.8542 241.244 0.982611 325.277 13.6451 332.184C26.3076 339.091 17.0985 325.277 29.761 342.544C42.4235 359.811 104.585 359.811 108.038 352.905C111.492 345.998 80.411 294.197 86.1667 245.849C91.9224 197.501 101.131 130.735 93.0735 121.526C85.0156 112.317 80.2983 98.7859 80.2983 98.7859Z" fill="#2F2E41"/>
<path id="Vector_30" d="M121.852 106.561L123.455 101.043C123.455 101.043 171.351 116.922 173.653 127.282C175.955 137.642 174.804 210.164 166.746 215.919C158.688 221.675 147.177 230.884 155.235 244.698C163.293 258.511 172.502 273.476 179.409 274.627C186.316 275.778 198.978 283.836 195.525 291.894C192.071 299.952 150.63 284.988 150.63 284.988C150.63 284.988 123.003 264.267 124.154 232.035C125.305 199.803 121.852 106.561 121.852 106.561Z" fill="#2F2E41"/>
<path id="Vector_31" d="M162.142 242.396L134.514 294.197C134.514 294.197 94.2246 335.638 117.247 340.242C140.27 344.847 152.933 302.255 152.933 302.255L182.862 259.663L162.142 242.396Z" fill="#FFB8B8"/>
<g id="head">
<path id="Vector_32" d="M93.9218 0.252277C92.192 0.137823 90.4681 0.551709 88.9788 1.43909C87.519 2.47316 86.6169 4.25851 85.6935 5.9212C82.1644 12.3536 77.3378 17.9829 71.5196 22.4526C67.281 25.6622 61.891 29.6659 62.7166 35.4465C63.134 37.3532 63.8697 39.176 64.8929 40.8382C68.9756 48.7615 79.8691 54.7618 78.9517 63.8913C82.7779 57.2489 77.469 54.0786 81.2951 47.4362C83.1173 44.2729 86.3128 40.6841 89.1701 42.6072C90.1268 43.2511 90.7669 44.4231 91.7613 44.9856C94.1341 46.3279 96.5933 43.6508 98.6447 41.7498C105.719 35.1942 115.95 36.72 124.912 38.5855C129.142 39.4662 133.793 40.636 136.349 44.6256C139.709 49.8712 133.41 55.694 131.891 61.709C131.767 62.2214 131.769 62.7562 131.897 63.2676C132.025 63.7789 132.275 64.2517 132.626 64.6454C132.976 65.0391 133.417 65.3421 133.91 65.5284C134.403 65.7146 134.934 65.7787 135.458 65.715C138.133 65.4083 141.304 65.1413 141.443 63.963C144.817 64.0295 148.941 63.5823 150.33 60.0491C150.749 58.6533 150.96 57.203 150.954 55.7455C151.391 49.8406 153.808 44.4216 155.377 38.7833C156.946 33.145 157.563 26.5566 154.686 21.6253C153.661 19.9857 152.402 18.5044 150.95 17.2284C134.829 2.11535 113.914 -0.0875256 93.9218 0.252277Z" fill="#2F2E41"/>
<path id="Vector_33" d="M108.786 93.9272C127.856 93.6249 143.07 77.9202 142.768 58.85C142.465 39.7797 126.761 24.5654 107.691 24.8677C88.6204 25.1701 73.406 40.8747 73.7083 59.945C74.0107 79.0152 89.7153 94.2296 108.786 93.9272Z" fill="#FFB8B8"/>
<path id="Vector_34" d="M95.7471 9.26023C94.3537 9.17917 92.9639 9.47167 91.7214 10.1075C90.6022 10.9524 89.6859 12.0367 89.0395 13.2811C86.0427 17.9478 82.1031 21.9361 77.4736 24.99C74.0179 27.2658 69.6236 30.1048 70.2858 34.1893C70.6317 35.5568 71.2294 36.8479 72.0481 37.9965C75.3701 43.6468 76.7612 50.2253 76.0109 56.7367L85.3886 42.6323C86.8772 40.3933 89.4846 37.8512 91.8072 39.2057C92.5848 39.6592 93.1039 40.4865 93.9124 40.8824C95.8416 41.8271 97.848 39.9307 99.5211 38.5835C105.29 33.9378 113.617 34.9989 120.908 36.3023C124.351 36.9176 128.134 37.7365 130.208 40.5521C133.654 45.2312 130.242 52.1251 132.296 57.5612C132.841 57.1668 133.301 56.6671 133.649 56.0917C133.997 55.5163 134.226 54.8769 134.322 54.2114C137.068 54.2528 140.426 53.9296 141.562 51.4299C141.905 50.4519 142.079 49.4231 142.078 48.387C142.443 44.2126 144.42 40.3782 145.707 36.3903C146.994 32.4023 147.507 27.7445 145.174 24.2638C144.322 23.0854 143.299 22.0402 142.14 21.1623C129.043 10.5075 112.022 8.98607 95.7471 9.26023Z" fill="#2F2E41"/>
</g>
<path id="Vector_35" d="M162.142 122.677L172.867 125.524C172.867 125.524 197.827 189.443 192.071 233.186C186.316 276.93 182.862 267.721 182.862 267.721C182.862 267.721 173.653 247 152.933 251.605L162.142 122.677Z" fill="#2F2E41"/>
<path id="Vector_36" d="M48.6229 624.263C45.847 628.036 46.4035 633.428 43.9446 637.414C41.8132 640.869 37.7962 642.681 35.1302 645.743C34.2795 646.76 33.5212 647.851 32.8641 649.003C30.391 653.145 28.3808 658.454 30.8165 662.619C32.7758 665.969 36.8943 667.279 40.6715 668.171C45.4455 669.299 50.4058 670.202 55.235 669.34C60.0642 668.478 64.7838 665.521 66.5057 660.927C66.8441 659.772 67.2464 658.637 67.7108 657.527C70.3282 652.374 78.5383 652.318 81.217 647.197C83.0917 643.613 81.3684 639.28 79.6459 635.621L74.3848 624.444C72.6389 620.735 65.5611 622.868 61.8714 621.979C57.0591 620.82 52.0848 619.543 48.6229 624.263Z" fill="#2F2E41"/>
<path id="Vector_37" d="M10.1917 265.418L58.5394 340.242C58.5394 340.242 88.4689 378.23 97.678 360.963C106.887 343.696 65.4462 314.917 65.4462 314.917L34.3655 257.36L10.1917 265.418Z" fill="#FFB8B8"/>
<path id="Vector_38" d="M34.3655 124.98L25.1564 122.677C25.1564 122.677 6.73826 128.433 2.13372 152.607C-2.47081 176.781 0.982583 273.476 6.73826 274.627C12.4939 275.778 35.1655 257.791 38.7945 261.604C42.4235 265.418 30.9121 245.849 34.3655 235.489C37.8189 225.128 34.3655 124.98 34.3655 124.98Z" fill="#2F2E41"/>
<g id="code">
<path id="Rectangle 55" d="M467.159 176.363H437.407V183.525H467.159V176.363Z" fill="#26A699"/>
<path id="Rectangle 56" d="M570.191 176.363H559.722V183.525H570.191V176.363Z" fill="#26A699"/>
<path id="Rectangle 57" d="M591.127 176.363H580.659V183.525H591.127V176.363Z" fill="#26A699"/>
<path id="Rectangle 58" d="M548.703 176.363H477.628V183.525H548.703V176.363Z" fill="#26A699"/>
<path id="Rectangle 59" d="M429.693 222.644H399.941V229.807H429.693V222.644Z" fill="#26A699"/>
<path id="Rectangle 60" d="M532.725 222.644H522.256V229.807H532.725V222.644Z" fill="#26A699"/>
<path id="Rectangle 61" d="M553.661 222.644H543.193V229.807H553.661V222.644Z" fill="#26A699"/>
<path id="Rectangle 62" d="M511.237 222.644H440.162V229.807H511.237V222.644Z" fill="#26A699"/>
<path id="Rectangle 63" d="M552.56 192.341H522.807V199.503H552.56V192.341Z" fill="#26A699"/>
<path id="Rectangle 64" d="M592.78 192.341H563.028V199.503H592.78V192.341Z" fill="#26A699"/>
<path id="Rectangle 66" d="M410.409 192.341H399.941V199.503H410.409V192.341Z" fill="#26A699"/>
<path id="Rectangle 67" d="M431.346 192.341H420.878V199.503H431.346V192.341Z" fill="#26A699"/>
<path id="Rectangle 68" d="M512.89 192.341H441.815V199.503H512.89V192.341Z" fill="#26A699"/>
<path id="Rectangle 69" d="M490.851 207.768H461.099V214.931H490.851V207.768Z" fill="#26A699"/>
<path id="Rectangle 70" d="M450.63 207.768H420.878V214.931H450.63V207.768Z" fill="#26A699"/>
<path id="Rectangle 71" d="M410.409 207.768H399.941V214.931H410.409V207.768Z" fill="#26A699"/>
<path id="Rectangle 73" d="M592.78 207.768H582.312V214.931H592.78V207.768Z" fill="#26A699"/>
<path id="Rectangle 74" d="M571.843 207.768H500.768V214.931H571.843V207.768Z" fill="#26A699"/>
</g>
</g>
</g>
<defs>
<clipPath id="clip0_1_63">
<rect width="711.188" height="669.683" fill="white"/>
</clipPath>
</defs>
</svg>
