<svg id="CHAIR" xmlns="http://www.w3.org/2000/svg" viewBox="0 0 1600 1400"><defs><style>.cls-1{fill:#fff;}.cls-2{fill:#262424;}.cls-3{fill:#26a699;}.cls-4{fill:#b16555;}</style></defs><title>E-learning</title><polygon class="cls-1" points="1284.69 872.99 1317.43 569.12 1277.98 569.12 1245.24 872.99 1284.69 872.99"/><path class="cls-2" d="M1284.69,876h-39.45a3,3,0,0,1-3-3.32L1275,568.8a3,3,0,0,1,3-2.68h39.45a3,3,0,0,1,3,3.32l-32.74,303.87A3,3,0,0,1,1284.69,876Zm-36.11-6H1282l32.09-297.87h-33.42Z"/><polygon class="cls-1" points="1267.2 872.99 1299.94 569.12 1260.48 569.12 1227.75 872.99 1267.2 872.99"/><path class="cls-2" d="M1267.2,876h-39.45a3,3,0,0,1-3-3.32L1257.5,568.8a3,3,0,0,1,3-2.68h39.45a3,3,0,0,1,3,3.32l-32.74,303.87A3,3,0,0,1,1267.2,876Zm-36.11-6h33.42l32.09-297.87h-33.42Z"/><path class="cls-1" d="M1402.05,598H1184c-11.4,0-19.64-9.24-18.41-20.64l19-176c1.23-11.4,11.46-20.64,22.86-20.64h218c11.4,0,19.64,9.24,18.41,20.64l-19,176C1423.69,588.76,1413.45,598,1402.05,598Z"/><path class="cls-2" d="M1402.05,601H1184a21.18,21.18,0,0,1-21.4-24l19-176c1.39-12.86,13-23.32,25.84-23.32h218a21.18,21.18,0,0,1,21.4,24l-19,176C1426.51,590.54,1414.92,601,1402.05,601ZM1207.43,383.74a20.52,20.52,0,0,0-19.88,18l-19,176a15.63,15.63,0,0,0,3.76,12.31,15.42,15.42,0,0,0,11.67,5h218a20.52,20.52,0,0,0,19.88-18l19-176a15.63,15.63,0,0,0-3.76-12.31,15.42,15.42,0,0,0-11.67-5h-218Z"/><path class="cls-3" d="M1355.24,598h-218c-11.4,0-19.64-9.24-18.41-20.64l19-176c1.23-11.4,11.46-20.64,22.86-20.64h218c11.4,0,19.64,9.24,18.41,20.64l-19,176C1376.87,588.76,1366.64,598,1355.24,598Z"/><path class="cls-3" d="M1355.24,601h-218a21.18,21.18,0,0,1-21.4-24l19-176c1.39-12.86,13-23.32,25.84-23.32h218a21.18,21.18,0,0,1,21.4,24l-19,176C1379.7,590.54,1368.11,601,1355.24,601ZM1160.62,383.74a20.52,20.52,0,0,0-19.88,18l-19,176a15.63,15.63,0,0,0,3.76,12.31,15.42,15.42,0,0,0,11.67,5h218a20.52,20.52,0,0,0,19.88-18l19-176a15.63,15.63,0,0,0-3.76-12.31,15.42,15.42,0,0,0-11.67-5h-218Z"/><rect class="cls-1" x="1126.4" y="943" width="44.6" height="100"/><path class="cls-2" d="M1171,1046h-44.6a3,3,0,0,1-3-3V943a3,3,0,0,1,3-3H1171a3,3,0,0,1,3,3v100A3,3,0,0,1,1171,1046Zm-41.6-6H1168V946h-38.6v94Z"/><path class="cls-3" d="M1078,913h141.38a0,0,0,0,1,0,0v0a38,38,0,0,1-38,38H1116a38,38,0,0,1-38-38v0A0,0,0,0,1,1078,913Z"/><path class="cls-3" d="M1126.48,1030.15h44.44a13.76,13.76,0,0,1,13.76,13.76v43.58a0,0,0,0,1,0,0h-72a0,0,0,0,1,0,0v-43.58a13.76,13.76,0,0,1,13.76-13.76Z"/><path class="cls-1" d="M1148.7,1087.5V1136l-169.88,75.92H946a35.93,35.93,0,0,1,16.85-30.44l149.87-93.94h36Z"/><path class="cls-2" d="M978.82,1214.88H946a3,3,0,0,1-3-3,38.72,38.72,0,0,1,18.25-33L1111.12,1085a3,3,0,0,1,1.59-.46h36a3,3,0,0,1,3,3V1136a3,3,0,0,1-1.78,2.74L980,1214.62A3,3,0,0,1,978.82,1214.88Zm-29.69-6h29L1145.7,1134V1090.5h-32.12L964.44,1184A32.73,32.73,0,0,0,949.13,1208.88Z"/><circle class="cls-2" cx="960.66" cy="1253.84" r="28.17"/><circle class="cls-1" cx="960.66" cy="1253.84" r="9.17"/><path class="cls-1" d="M1148.7,1087.5V1136l169.88,75.92h32.82a35.93,35.93,0,0,0-16.85-30.44l-149.87-93.94h-36Z"/><path class="cls-2" d="M1351.4,1214.88h-32.82a3,3,0,0,1-1.22-.26l-169.88-75.92a3,3,0,0,1-1.78-2.74V1087.5a3,3,0,0,1,3-3h36a3,3,0,0,1,1.59.46l149.87,93.94a38.72,38.72,0,0,1,18.25,33A3,3,0,0,1,1351.4,1214.88Zm-32.18-6h29A32.73,32.73,0,0,0,1333,1184l-149.14-93.48H1151.7V1134Z"/><circle class="cls-2" cx="1336.73" cy="1253.84" r="28.17"/><circle class="cls-1" cx="1336.73" cy="1253.84" r="9.17"/><polygon class="cls-1" points="1167.39 1211.88 1130 1211.88 1112.72 1087.5 1184.68 1087.5 1167.39 1211.88"/><path class="cls-2" d="M1167.4,1214.88H1130a3,3,0,0,1-3-2.59l-17.28-124.38a3,3,0,0,1,3-3.41h72a3,3,0,0,1,3,3.41l-17.28,124.38A3,3,0,0,1,1167.4,1214.88Zm-34.78-6h32.17l16.45-118.38h-65.07Z"/><rect class="cls-2" x="1128.5" y="1225.67" width="42.5" height="56.34" rx="9.67" ry="9.67"/><rect class="cls-1" x="957.67" y="857" width="229" height="56" rx="28" ry="28"/><path class="cls-2" d="M1158.67,916h-173a31,31,0,0,1,0-62h173A31,31,0,0,1,1158.67,916Zm-173-56a25,25,0,0,0,0,50h173a25,25,0,0,0,0-50h-173Z"/><rect class="cls-1" x="1134" y="857" width="205.73" height="56" rx="28" ry="28"/><path class="cls-2" d="M1311.73,916H1162a31,31,0,0,1,0-62h149.73A31,31,0,1,1,1311.73,916ZM1162,860a25,25,0,0,0,0,50h149.73a25,25,0,1,0,0-50H1162Z"/><polygon class="cls-1" points="646.89 569 646.89 585 515.16 585 515.16 569 539.66 511.85 635.72 511.85 611.22 569 646.89 569"/><path class="cls-2" d="M646.89,588H515.16a3,3,0,0,1-3-3V569a3,3,0,0,1,.24-1.18l24.5-57.15a3,3,0,0,1,2.76-1.82h96.06a3,3,0,0,1,2.76,4.18l-22.71,53h31.12a3,3,0,0,1,3,3v16A3,3,0,0,1,646.89,588Zm-128.73-6H643.89V572H611.22a3,3,0,0,1-2.76-4.18l22.71-53H541.64l-23.48,54.77V582Z"/><rect class="cls-1" x="567.41" y="569" width="79.48" height="16"/><path class="cls-2" d="M646.89,588H567.41a3,3,0,0,1-3-3V569a3,3,0,0,1,3-3h79.48a3,3,0,0,1,3,3v16A3,3,0,0,1,646.89,588Zm-76.48-6h73.48V572H570.41v10Z"/><polygon class="cls-1" points="567.41 569 567.41 585 515.16 585 515.16 569 539.66 511.85 556.24 511.85 531.74 569 567.41 569"/><path class="cls-2" d="M567.41,588H515.16a3,3,0,0,1-3-3V569a3,3,0,0,1,.24-1.18l24.5-57.15a3,3,0,0,1,2.76-1.82h16.58A3,3,0,0,1,559,513l-22.71,53h31.12a3,3,0,0,1,3,3v16A3,3,0,0,1,567.41,588Zm-49.25-6h46.25V572H531.74a3,3,0,0,1-2.76-4.18l22.71-53H541.64l-23.48,54.77V582Z"/><path class="cls-4" d="M769.58,531H375.9a12.11,12.11,0,0,1-11.77-10.66l-25.59-246a9.43,9.43,0,0,1,9.55-10.66H741.77a12.11,12.11,0,0,1,11.77,10.66l25.59,246A9.43,9.43,0,0,1,769.58,531Z"/><path class="cls-3" d="M786.75,531H393.07a12.11,12.11,0,0,1-11.77-10.66l-25.59-246a9.43,9.43,0,0,1,9.55-10.66H758.94a12.11,12.11,0,0,1,11.77,10.66l25.59,246A9.43,9.43,0,0,1,786.75,531Z"/><path class="cls-1" d="M774.17,511.85H401.67a6.34,6.34,0,0,1-6.16-5.58L372.84,288.42a4.94,4.94,0,0,1,5-5.58h372.5a6.34,6.34,0,0,1,6.16,5.58l22.67,217.85A4.94,4.94,0,0,1,774.17,511.85Z"/><path class="cls-2" d="M774.17,514.85H401.67a9.3,9.3,0,0,1-9.15-8.27L369.85,288.73a7.94,7.94,0,0,1,8-8.89h372.5a9.3,9.3,0,0,1,9.15,8.27L782.15,506A7.94,7.94,0,0,1,774.17,514.85Zm-396.33-229a2,2,0,0,0-1.54.63,2.08,2.08,0,0,0-.48,1.64L398.49,506a3.37,3.37,0,0,0,3.18,2.89h372.5a2,2,0,0,0,1.54-.63,2.08,2.08,0,0,0,.48-1.64L753.52,288.73a3.37,3.37,0,0,0-3.18-2.89H377.84Z"/><path class="cls-4" d="M634.42,461h-213a6.34,6.34,0,0,1-6.16-5.58L401.62,324.58a4.94,4.94,0,0,1,5-5.58h213a6.34,6.34,0,0,1,6.16,5.58l13.61,130.85A4.94,4.94,0,0,1,634.42,461Z"/><polygon class="cls-1" points="627.13 448.42 426.07 448.42 413.91 331.6 614.97 331.6 627.13 448.42"/><path class="cls-2" d="M627.13,451.42H426.07a3,3,0,0,1-3-2.69L410.93,331.91a3,3,0,0,1,3-3.31H615a3,3,0,0,1,3,2.69l12.15,116.82A3,3,0,0,1,627.13,451.42Zm-198.35-6h195L612.27,334.6h-195Z"/><path class="cls-3" d="M705.45,381.68s26.27,9.84,41.79,130.17h-32Z"/><path class="cls-2" d="M644.81,322.19s-5.74,18.61,5.09,39.74h38.38s0.51-20.25-3.63-34.88S644.81,322.19,644.81,322.19Z"/><path class="cls-1" d="M595.38,418l-20.65-36.72a2.6,2.6,0,0,0-3-1.18h0a2.15,2.15,0,0,0-1.25,2.8L574,393.3l-5.19,6c-3,3.41-2.39,8.83,1.27,12.24l18.38,13.5Z"/><path class="cls-2" d="M588.5,428.05a3,3,0,0,1-1.77-.58L568.34,414l-0.27-.22c-4.87-4.54-5.52-11.74-1.49-16.4l4.06-4.7-3-8.77a5.14,5.14,0,0,1,3.08-6.6,5.59,5.59,0,0,1,6.58,2.44l0.05,0.09L598,416.53a3,3,0,0,1-.47,3.56l-6.87,7.05A3,3,0,0,1,588.5,428.05ZM572,409.25l16.13,11.84,3.49-3.58-15.76-28,1,2.83a3,3,0,0,1-.57,2.94l-5.19,6C569.27,403.4,569.69,407,572,409.25Z"/><path class="cls-3" d="M635.7,381.68c-7,6.33-15.28,21.06-25,45.5l-14.61-15.5L581.9,424.43s19.32,53.5,35.82,53.5S653,440.09,653,440.09Z"/><path class="cls-2" d="M613.33,465a3,3,0,0,1-2.89-2.2A85.49,85.49,0,0,1,608,431.24a3,3,0,0,1,5.94.85,80.86,80.86,0,0,0,2.26,29.11A3,3,0,0,1,613.33,465Z"/><path class="cls-3" d="M722.83,511.85H645.42c-10.93-63.34-9.71-130.17-9.71-130.17,12.51-9.5,33.49-13.33,33.49-13.33s21.77,3.83,36.26,13.33C705.45,381.68,720.58,448.51,722.83,511.85Z"/><path class="cls-2" d="M638.47,458.51a3,3,0,0,1-3-2.76c-2.36-28.89-2.78-53.59-2.82-65.74a3,3,0,0,1,3-3h0a3,3,0,0,1,3,3c0,12.06.46,36.58,2.8,65.27a3,3,0,0,1-2.75,3.23h-0.25Z"/><path class="cls-2" d="M722.34,504.36a3,3,0,0,1-3-2.83c-2.63-46.53-11.41-93.07-15.06-110.92a3,3,0,1,1,5.88-1.2c3.68,18,12.53,64.86,15.18,111.79a3,3,0,0,1-2.83,3.16h-0.17Z"/><path class="cls-4" d="M670.53,381.25c9.36,0,13.45,5,13.45,5,1.71-13.44-7.37-22.29-15.25-22.29s-15.12,8.85-10.61,22.29C658.12,386.22,661.17,381.25,670.53,381.25Z"/><polygon class="cls-1" points="671.96 352.93 673.72 369.8 669.8 374.18 664.97 369.8 663.21 352.93 671.96 352.93"/><path class="cls-2" d="M669.8,377.18a3,3,0,0,1-2-.78L663,372a3,3,0,0,1-1-1.91l-1.76-16.87a3,3,0,0,1,3-3.31H672a3,3,0,0,1,3,2.69l1.76,16.87a3,3,0,0,1-.75,2.31L672,376.18a3,3,0,0,1-2.08,1H669.8Zm-2-8.83,1.75,1.58,1-1.14-1.34-12.86h-2.72Z"/><path class="cls-1" d="M668.08,357.68h0a15.77,15.77,0,0,1-15.32-13.87l-0.94-9a12.28,12.28,0,0,1,12.43-13.87h0a15.77,15.77,0,0,1,15.32,13.87l0.94,9A12.28,12.28,0,0,1,668.08,357.68Z"/><path class="cls-2" d="M668.08,360.68a18.86,18.86,0,0,1-18.3-16.56l-0.94-9a15.27,15.27,0,0,1,15.42-17.19,18.86,18.86,0,0,1,18.3,16.56l0.94,9A15.27,15.27,0,0,1,668.08,360.68Zm-3.82-36.75a9.44,9.44,0,0,0-7.14,3,9.57,9.57,0,0,0-2.31,7.52l0.94,9a12.72,12.72,0,0,0,12.33,11.19h0a9.44,9.44,0,0,0,7.14-3,9.57,9.57,0,0,0,2.31-7.52l-0.94-9A12.72,12.72,0,0,0,664.26,323.93Z"/><path class="cls-2" d="M648.25,336.43S669.5,342,675.5,326c0,0-2,14.07,4.63,14.07,0,0,5.25-3.62,4.52-13S672,303.19,655.53,310.3C636.39,318.55,648.25,336.43,648.25,336.43Z"/><rect class="cls-4" x="736.39" y="677.85" width="24.19" height="604.15"/><rect class="cls-4" x="866.81" y="677.85" width="24.19" height="604.15"/><polygon class="cls-4" points="866.81 677.85 866.81 1282 818.42 1282 818.42 1192.97 736.39 1192.97 736.39 1282 688 1282 688 677.85 736.39 677.85 736.39 1144.58 818.42 1144.58 818.42 677.85 866.81 677.85"/><path class="cls-2" d="M736.39,1280a2.5,2.5,0,0,1-2.5-2.5V1193a2.5,2.5,0,0,1,5,0v84.53A2.5,2.5,0,0,1,736.39,1280Z"/><path class="cls-2" d="M866.81,1278a2.5,2.5,0,0,1-2.5-2.5V677.85a2.5,2.5,0,0,1,5,0V1275.5A2.5,2.5,0,0,1,866.81,1278Z"/><path class="cls-2" d="M736.39,1147.08a2.5,2.5,0,0,1-2.5-2.5V677.85a2.5,2.5,0,0,1,5,0v466.73A2.5,2.5,0,0,1,736.39,1147.08Z"/><rect class="cls-4" x="493.03" y="1144.58" width="325.39" height="48.39"/><path class="cls-2" d="M756.21,1195.47H694a2.5,2.5,0,1,1,0-5h62.21A2.5,2.5,0,0,1,756.21,1195.47Z"/><path class="cls-2" d="M818.42,1191.17a2.5,2.5,0,0,1-2.5-2.5v-39a2.5,2.5,0,0,1,5,0v39A2.5,2.5,0,0,1,818.42,1191.17Z"/><path class="cls-2" d="M756.46,1147.08h-62a2.5,2.5,0,0,1,0-5h62A2.5,2.5,0,1,1,756.46,1147.08Z"/><rect class="cls-4" x="411" y="677.85" width="24.19" height="604.15"/><rect class="cls-4" x="541.42" y="677.85" width="24.19" height="604.15"/><path class="cls-2" d="M565.61,1191.17a2.5,2.5,0,0,1-2.5-2.5v-38.92a2.5,2.5,0,0,1,5,0v38.92A2.5,2.5,0,0,1,565.61,1191.17Z"/><polygon class="cls-4" points="541.42 677.85 541.42 1282 493.03 1282 493.03 1192.97 411 1192.97 411 1282 362.61 1282 362.61 677.85 411 677.85 411 1144.58 493.03 1144.58 493.03 677.85 541.42 677.85"/><path class="cls-2" d="M411,1278a2.5,2.5,0,0,1-2.5-2.5V1193a2.5,2.5,0,0,1,2.5-2.5h20.5a2.5,2.5,0,1,1,0,5h-18v80A2.5,2.5,0,0,1,411,1278Z"/><path class="cls-2" d="M541.42,1280a2.5,2.5,0,0,1-2.5-2.5V680.35H493a2.5,2.5,0,0,1,0-5h48.39a2.5,2.5,0,0,1,2.5,2.5V1277.5A2.5,2.5,0,0,1,541.42,1280Z"/><path class="cls-2" d="M431.5,1147.08H411a2.5,2.5,0,0,1-2.5-2.5V677.85a2.5,2.5,0,1,1,5,0v464.23h18A2.5,2.5,0,1,1,431.5,1147.08Z"/><rect class="cls-3" x="330.61" y="585" width="200.46" height="53.93"/><rect class="cls-3" x="531.07" y="585" width="391.93" height="53.93" transform="translate(1454.07 1223.93) rotate(180)"/><path class="cls-2" d="M531.07,641.43a2.5,2.5,0,0,1-2.5-2.5V589.48a2.5,2.5,0,0,1,5,0v49.45A2.5,2.5,0,0,1,531.07,641.43Z"/><rect class="cls-1" x="362.61" y="638.93" width="178.8" height="38.93"/><path class="cls-2" d="M541.42,680.85H362.61a3,3,0,0,1-3-3V638.93a3,3,0,0,1,3-3h178.8a3,3,0,0,1,3,3v38.93A3,3,0,0,1,541.42,680.85Zm-175.8-6h172.8V641.93H365.61v32.93Z"/><rect class="cls-1" x="541.42" y="638.93" width="349.58" height="38.93" transform="translate(1432.42 1316.78) rotate(180)"/><path class="cls-2" d="M891,680.85H541.42a3,3,0,0,1-3-3V638.93a3,3,0,0,1,3-3H891a3,3,0,0,1,3,3v38.93A3,3,0,0,1,891,680.85Zm-346.58-6H888V641.93H544.42v32.93Z"/><polygon class="cls-1" points="750.88 1093.84 743.58 1171.92 774.14 1173.27 788.75 1095.06 750.88 1093.84"/><path class="cls-2" d="M774.14,1176.27H774l-30.56-1.36a3,3,0,0,1-2.85-3.28l7.3-78.08a3,3,0,0,1,3.08-2.72l37.86,1.22a3,3,0,0,1,2.85,3.55l-14.61,78.21A3,3,0,0,1,774.14,1176.27Zm-27.28-7.21,24.81,1.1,13.49-72.21-31.55-1Z"/><path class="cls-3" d="M621.83,1268.39V1282H790.12s0.55-7.11,1.07-19.06c1-23.51,2.26-63-.87-106.72l-53.71-8.61s-46.1,48-87.12,85.3c-4.26,3.88-8.74,7.65-13.46,11.23C627,1251,621.83,1259.54,621.83,1268.39Z"/><path class="cls-2" d="M701.32,1234.44a3,3,0,0,1-2.16-5.08c35.89-37.21,52-68,52.18-68.31a3,3,0,0,1,5.33,2.75c-0.66,1.28-16.63,31.82-53.19,69.72A3,3,0,0,1,701.32,1234.44Z"/><ellipse class="cls-1" cx="763.48" cy="1219.67" rx="14.94" ry="16.63"/><path class="cls-2" d="M763.48,1239.3c-9.89,0-17.94-8.81-17.94-19.63s8-19.63,17.94-19.63,17.94,8.81,17.94,19.63S773.37,1239.3,763.48,1239.3Zm0-33.27c-6.58,0-11.94,6.12-11.94,13.63s5.36,13.63,11.94,13.63,11.94-6.12,11.94-13.63S770.07,1206,763.48,1206Z"/><path class="cls-1" d="M621.83,1268.39V1282H790.12s0.55-7.11,1.07-19.06H702.35s-5.68-39.58-52.86-30c-4.26,3.88-8.74,7.65-13.46,11.23C627,1251,621.83,1259.54,621.83,1268.39Z"/><path class="cls-2" d="M790.13,1285H621.83a3,3,0,0,1-3-3v-13.62c0-9.64,5.46-19.1,15.38-26.63,4.43-3.36,8.89-7.08,13.26-11.06a3,3,0,0,1,1.42-.72c16.27-3.3,29.67-1.34,39.83,5.82,10.87,7.66,14.8,19.07,16.06,24.14h86.41a3,3,0,0,1,3,3.13c-0.52,11.86-1.07,19.08-1.08,19.15A3,3,0,0,1,790.13,1285Zm-165.29-6H787.33c0.18-2.66.45-7.14,0.73-13.06h-85.7a3,3,0,0,1-3-2.57c0-.13-2.25-14.34-14.17-22.71-8.58-6-20.12-7.69-34.32-5-4.3,3.88-8.69,7.53-13,10.84-8.39,6.36-13,14.12-13,21.85V1279Z"/><path class="cls-3" d="M1104.11,713.77s-17.36,99.12-24.18,109.23c-21.51,31.89-239.29,88.39-239.29,88.39l-29.44,214.2-88-9.59s-2.79-132.48,1.37-212.92c1.62-31.31,4.28-54.75,8.58-59.41,3.54-3.85,17.48-13,36.91-24.81,66-40.15,195.18-111.28,195.18-111.28s26.76-70.81,74.37-50.28C1083.88,676.39,1109.61,680.72,1104.11,713.77Z"/><path class="cls-1" d="M777.31,872.9c-10.09,23.18-33,35.92-52.74,30.18,1.62-31.31,4.28-54.75,8.58-59.41,3.54-3.85,17.48-13,36.91-24.81C782.54,831.2,786,852.88,777.31,872.9Z"/><path class="cls-2" d="M770.87,1086.83l-0.35,0a2.5,2.5,0,0,1-2.13-2.82L795,893.74a2.5,2.5,0,0,1,1.52-2l234.64-97.15,11.48-69.56a2.5,2.5,0,0,1,4.93.81l-11.71,70.93a2.5,2.5,0,0,1-1.51,1.9l-234.6,97.13-26.42,188.83A2.5,2.5,0,0,1,770.87,1086.83Z"/><path class="cls-2" d="M798.2,1106.21h-0.27l-61.56-6.54a2.5,2.5,0,0,1,.53-5l61.56,6.54A2.5,2.5,0,0,1,798.2,1106.21Z"/><polygon class="cls-1" points="953.45 1100.28 962.29 1178.2 992.48 1173.27 990.76 1093.73 953.45 1100.28"/><path class="cls-2" d="M962.29,1181.2a3,3,0,0,1-3-2.66l-8.84-77.92a3,3,0,0,1,2.46-3.29l37.31-6.55a3,3,0,0,1,3.52,2.89l1.72,79.54a3,3,0,0,1-2.52,3l-30.19,4.93A3,3,0,0,1,962.29,1181.2Zm-5.54-78.45,8.17,72,24.51-4-1.59-73.44Z"/><path class="cls-3" d="M840.17,1268.39V1282h168.29s0.55-7.11,1.07-19.06c1-23.51,2.26-63-.87-106.72L955,1147.62s-46.1,48-87.12,85.3c-4.26,3.88-8.74,7.65-13.46,11.23C845.31,1251,840.17,1259.54,840.17,1268.39Z"/><path class="cls-2" d="M919.66,1234.44a3,3,0,0,1-2.16-5.08c36-37.27,52-68,52.18-68.3a3,3,0,1,1,5.33,2.75c-0.66,1.28-16.63,31.82-53.19,69.72A3,3,0,0,1,919.66,1234.44Z"/><ellipse class="cls-1" cx="981.82" cy="1219.67" rx="14.94" ry="16.63"/><path class="cls-2" d="M981.82,1239.3c-9.89,0-17.94-8.81-17.94-19.63s8-19.63,17.94-19.63,17.94,8.81,17.94,19.63S991.71,1239.3,981.82,1239.3Zm0-33.27c-6.58,0-11.94,6.12-11.94,13.63s5.36,13.63,11.94,13.63,11.94-6.12,11.94-13.63S988.41,1206,981.82,1206Z"/><path class="cls-1" d="M840.17,1268.39V1282h168.29s0.55-7.11,1.07-19.06H920.69s-5.68-39.58-52.86-30c-4.26,3.88-8.74,7.65-13.46,11.23C845.31,1251,840.17,1259.54,840.17,1268.39Z"/><path class="cls-2" d="M1008.47,1285H840.17a3,3,0,0,1-3-3v-13.62c0-9.64,5.46-19.1,15.38-26.63,4.43-3.36,8.89-7.08,13.26-11.06a3,3,0,0,1,1.42-.72c16.28-3.3,29.67-1.34,39.83,5.82,10.87,7.66,14.8,19.07,16.06,24.14h86.41a3,3,0,0,1,3,3.13c-0.52,11.86-1.07,19.08-1.08,19.15A3,3,0,0,1,1008.47,1285Zm-165.29-6h162.49c0.17-2.66.45-7.14,0.73-13.06h-85.7a3,3,0,0,1-3-2.57c0-.14-2.25-14.34-14.17-22.71-8.58-6-20.13-7.69-34.32-5-4.3,3.89-8.69,7.53-13,10.84-8.39,6.36-13,14.12-13,21.85V1279Z"/><path class="cls-3" d="M1239.77,713.77s-4.51,99.12-11.33,109.23c-21.51,31.89-239.29,88.39-239.29,88.39L1010.41,1123l-87.74-.47S894,985.9,883.13,905.27c-4.36-32.41-5.86-56.82-1.46-61.6,3.7-4,18.82-13.86,39.7-26.51,66.73-40.42,192.38-109.58,192.38-109.58s26.16-50.28,74.37-50.28S1245.28,680.72,1239.77,713.77Z"/><path class="cls-1" d="M932.11,874.23c-9.46,21.73-30.15,34.28-49,31-4.36-32.41-5.86-56.82-1.46-61.6,3.7-4,18.82-13.86,39.7-26.51C936.64,828.71,941.59,852.46,932.11,874.23Z"/><path class="cls-2" d="M881.39,893.95a2.5,2.5,0,0,1-2.48-2.21c-4.45-38.39-1.85-46.76.92-49.76,15.36-16.7,216.65-127.74,232.07-136.23a118.9,118.9,0,0,1,19.19-25.07c16.92-16.92,36.64-25.87,57-25.87a2.5,2.5,0,0,1,0,5c-46.16,0-71.9,48.44-72.16,48.93a2.5,2.5,0,0,1-1,1C1112.79,711,898.59,829,883.51,845.36c-1.32,1.43-3.92,8.76.37,45.8a2.5,2.5,0,0,1-2.2,2.77Z"/><path class="cls-2" d="M1184.68,781.69a2.5,2.5,0,0,1-.57-0.07c-8.51-2-14.46-6.4-17.68-13.1-7.67-15.93,3.13-39,3.6-40a2.5,2.5,0,0,1,4.52,2.15c-0.1.22-10.24,21.92-3.61,35.69,2.54,5.26,7.35,8.76,14.31,10.39A2.5,2.5,0,0,1,1184.68,781.69Z"/><path class="cls-2" d="M970.33,1086.83a2.5,2.5,0,0,1-2.48-2.18L943.52,894.4a2.5,2.5,0,0,1,1.52-2.63l234.64-97.15,11.48-69.56a2.5,2.5,0,0,1,4.93.81l-11.71,70.93a2.5,2.5,0,0,1-1.51,1.9L948.72,895.67,972.81,1084a2.5,2.5,0,0,1-2.16,2.8Z"/><path class="cls-2" d="M997.66,1106.21H936.1a2.5,2.5,0,0,1,0-5h61.56A2.5,2.5,0,0,1,997.66,1106.21Z"/><path class="cls-1" d="M670.87,579.91h0a5.23,5.23,0,0,0,6.37,1.92L729,560.15a4.34,4.34,0,0,1,5.52,2h0a4.34,4.34,0,0,1-2.23,6.06l-16.91,6.75a6.84,6.84,0,0,0-4.25,7.19h0a6.84,6.84,0,0,0,6.45,6l26,1.31A33.06,33.06,0,0,0,766,582.18l7.84-6.31,19.08-.78L804,543.92l-25.89-2.61L741,527.87a17.37,17.37,0,0,0-16.84,2.82l-52.27,42.24A5.23,5.23,0,0,0,670.87,579.91Z"/><path class="cls-2" d="M745.25,592.48q-0.91,0-1.82,0l-26-1.31a9.84,9.84,0,0,1-3.16-19l16.91-6.75a1.34,1.34,0,1,0-1-2.49L678.4,584.59a8.25,8.25,0,0,1-10-3h0a8.19,8.19,0,0,1,1.67-11l52.27-42.24a20.48,20.48,0,0,1,19.75-3.31l36.71,13.31,25.52,2.57a3,3,0,0,1,2.53,4L795.71,576.1a3,3,0,0,1-2.7,2l-18.1.74-7.06,5.69A36,36,0,0,1,745.25,592.48ZM730.7,556.8A7.35,7.35,0,0,1,733.4,571l-16.91,6.75a3.84,3.84,0,0,0,1.23,7.4l26,1.31a30.08,30.08,0,0,0,20.36-6.6l7.84-6.31a3,3,0,0,1,1.76-.66l17.06-.7,9.15-25.65-22.08-2.22a3,3,0,0,1-.72-0.16L740,530.69A14.45,14.45,0,0,0,726.09,533l-52.27,42.24a2.23,2.23,0,0,0,2.27,3.8l51.76-21.67A7.4,7.4,0,0,1,730.7,556.8Z"/><path class="cls-4" d="M1081.15,467.47s-59.45,53.13-105.36,92.45q-5.54,4.74-10.77,9.18A66.93,66.93,0,0,1,921.7,585h-128c-15-13.33-19.39-30.21-9.67-51.8L899.67,501l130.92-144.54Z"/><path class="cls-1" d="M975.79,559.92q-5.54,4.74-10.77,9.18A66.93,66.93,0,0,1,921.7,585h-8a28.12,28.12,0,0,1-1.09-4.34c-2.74-16.48,10-32.33,28.39-35.4C955.56,542.85,969.29,549.1,975.79,559.92Z"/><circle class="cls-1" cx="800" cy="573.59" r="6.71" transform="translate(-172.34 420.11) rotate(-26.67)"/><path class="cls-2" d="M800,583.31a9.73,9.73,0,1,1,4.35-1A9.73,9.73,0,0,1,800,583.31Zm0-13.43a3.71,3.71,0,1,0,3.32,2A3.69,3.69,0,0,0,800,569.88Z"/><path class="cls-2" d="M820.34,583.33a3,3,0,0,1-2.49-1.32c-15.85-23.44-10.68-50.46-10.46-51.6a3,3,0,0,1,5.88,1.17c-0.07.35-4.85,25.8,9.54,47.07A3,3,0,0,1,820.34,583.33Z"/><path class="cls-4" d="M1281.09,380.74s-78.51-52.17-136.35-51.13-114.14,26.86-114.14,26.86c-47,98.13-72.93,349.21-72.93,349.21s62,23.94,235.53,33.67l7.35-43.73a6.35,6.35,0,0,1,7.05-5.25h0a6.35,6.35,0,0,1,5.51,7.14l-5.77,43.62a344.55,344.55,0,0,0,46.33,2C1279.44,559,1281.09,380.74,1281.09,380.74Z"/><path class="cls-2" d="M979.7,551.51a2.5,2.5,0,0,1-2.46-3L990.94,478c8.86-44.7,21.07-85.9,34.38-116a2.5,2.5,0,1,1,4.57,2c-13.17,29.79-25.26,70.61-34,115l-13.7,70.57A2.5,2.5,0,0,1,979.7,551.51Z"/><path class="cls-1" d="M1205.72,357.58c-11.16,23.82-31,33-43.32,36.4-2.58-17.33-10.53-39.27-10.53-39.27-10,12.91-15.68,30.24-17.19,38.18-30.83-9.56-33.41-39.58-33.41-39.58,4.77-29.84,31.27-51.58,53.36-50.11C1203.47,306.45,1205.72,357.58,1205.72,357.58Z"/><path class="cls-2" d="M1162.4,397a3,3,0,0,1-3-2.56c-1.74-11.66-6-25.64-8.51-33.19a101,101,0,0,0-13.29,32.22,3,3,0,0,1-3.84,2.31c-32.38-10-35.48-41.86-35.51-42.18a3,3,0,0,1,0-.73c5.25-32.88,34-54.11,56.52-52.63,26.63,1.77,39.9,17.31,46.33,30a73.59,73.59,0,0,1,7.55,27.19,3,3,0,0,1-.28,1.41,70.09,70.09,0,0,1-45.23,38A3,3,0,0,1,1162.4,397Zm-10.53-45.27a3,3,0,0,1,2.82,2c0.31,0.85,7.11,19.72,10.11,36.42a63.82,63.82,0,0,0,37.87-33.1,69.48,69.48,0,0,0-6.95-24.22c-8.35-16.38-22.24-25.32-41.28-26.58-19.83-1.33-45.36,18.57-50.14,47.2,0.38,3.24,3.91,26.31,28.19,35.56,2.19-8.74,7.63-24,17-36.09A3,3,0,0,1,1151.87,351.72Z"/><path class="cls-4" d="M1330.32,845h-186.9V808a83.09,83.09,0,0,1,83-83h103.9V845m11,40a29,29,0,0,0,29-29V714a29,29,0,0,0-29-29h-114.9a123,123,0,0,0-123,123v48a29,29,0,0,0,29,29h208.9Z"/><path class="cls-4" d="M1323.84,637.6c-4,23.74-10,42.28-19,47-3.19,4.24-10.1,9.52-19.17,15.31-38.27,24.39-115.16,57.58-115.16,57.58-36.69-8-36.5-47.5-36.5-47.5l98.16-101s21.28-162.42,24.77-186.76,24.16-41.5,24.16-41.5c32.74,20.76,43.56,60.4,48.28,129.29C1331.22,537,1330.85,595.5,1323.84,637.6Z"/><path class="cls-2" d="M1170.5,760a2.45,2.45,0,0,1-.53-0.06c-38.22-8.33-38.47-49.54-38.47-50a2.5,2.5,0,0,1,.71-1.73l97.58-100.41c1.64-12.55,21.34-162.78,24.67-186,2.18-15.22,10.71-27.68,17.48-35.45a2.5,2.5,0,0,1,3.77,3.28c-6.33,7.26-14.29,18.86-16.3,32.88-3.45,24-24.55,185.11-24.77,186.73a2.5,2.5,0,0,1-.69,1.42L1136.52,711c0.23,6,2.94,36.68,33.73,43.89,5.63-2.45,42.08-18.42,75.43-35.48a2.5,2.5,0,0,1,2.28,4.45c-36.22,18.53-76.07,35.77-76.47,35.94A2.51,2.51,0,0,1,1170.5,760Z"/><path class="cls-1" d="M1141.33,714.67s26.36,9.87,29.67,34.83L1149,782l-5.92,26.33a6.8,6.8,0,0,1-5.69,5.24l-30.15,4.21a6.8,6.8,0,0,1-7.74-6.73V777.5l-8,31.56a6.8,6.8,0,0,1-9.56,4.45h0a6.8,6.8,0,0,1-3.83-6.09L1078,763.08a15.63,15.63,0,0,1,7.33-13.29Z"/><path class="cls-2" d="M1106.3,820.84a9.8,9.8,0,0,1-9.8-9.8v-9.37l-2,8.12a9.8,9.8,0,0,1-13.78,6.42,9.86,9.86,0,0,1-5.52-8.78L1075,763.09a18.52,18.52,0,0,1,8.73-15.85l56-35.12a3,3,0,0,1,2.65-.27c1.15,0.43,28.08,10.81,31.59,37.25a3,3,0,0,1-.49,2.08l-21.68,32L1146,809a9.84,9.84,0,0,1-8.2,7.55l-30.15,4.21A9.77,9.77,0,0,1,1106.3,820.84Zm-6.8-46.34,0.37,0a3,3,0,0,1,2.63,3V811a3.8,3.8,0,0,0,4.32,3.76L1137,810.6a3.82,3.82,0,0,0,3.18-2.93l5.92-26.33a3,3,0,0,1,.44-1l21.34-31.53c-3.16-19.06-21.19-28.46-26.26-30.75l-54.67,34.29a12.56,12.56,0,0,0-5.92,10.74l0.14,44.34a3.8,3.8,0,0,0,5.4,3.43,3.78,3.78,0,0,0,2.08-2.51l8-31.56A3,3,0,0,1,1099.5,774.5Z"/><path class="cls-1" d="M1323.84,637.6c-4,23.74-10,42.28-19,47-3.19,4.24-10.1,9.52-19.17,15.31-0.83-.7-1.64-1.46-2.42-2.26-13.45-13.88-12.37-36.74,2.41-51C1296.35,636.25,1311.3,633.21,1323.84,637.6Z"/><path class="cls-2" d="M1195.83,736.5a2.5,2.5,0,0,1-2.48-2.24c-3.11-29.25-29.51-36.11-29.78-36.17a2.5,2.5,0,0,1,1.2-4.85c0.3,0.07,30.07,7.8,33.55,40.5a2.5,2.5,0,0,1-2.22,2.75h-0.27Z"/><circle class="cls-1" cx="1181.75" cy="736.75" r="6"/><path class="cls-2" d="M1181.75,745.75a9,9,0,1,1,9-9A9,9,0,0,1,1181.75,745.75Zm0-12a3,3,0,1,0,3,3A3,3,0,0,0,1181.75,733.75Z"/><path class="cls-1" d="M1185.21,243.73l-1.77,30-3,51.37c-17.68,11.53-34.54,12.26-50.37-.45l3.15-23.8,4.77-36.05Z"/><path class="cls-2" d="M1154.38,337c-9.16,0-17.92-3.33-26.2-10a3,3,0,0,1-1.1-2.73l7.91-59.86a3,3,0,0,1,1.75-2.35L1184,241a3,3,0,0,1,4.22,2.92l-4.79,81.39a3,3,0,0,1-1.36,2.34Q1167.71,337,1154.38,337Zm-21.12-13.63c13.53,10.15,28,10.17,44.27.05l4.41-74.94-41.21,18.39Z"/><path class="cls-2" d="M1168.9,251c-0.68,13.57-.92,59.84-37.52,63.66l6.59-49.85Z"/><path class="cls-1" d="M1093.94,244.47c2.49,24.74,9.67,54.32,39.35,49.72,35.28-5.48,58.09-30.42,58.42-64s-15.15-52.51-55.36-48.66a61.68,61.68,0,0,0-10.13,1.81c-23.13,6.23-34.77,25.41-33.33,47.9C1093.15,235.31,1093.45,239.81,1093.94,244.47Z"/><path class="cls-2" d="M1127.38,297.67a28.65,28.65,0,0,1-18.46-6.2c-14.76-11.85-17.56-37.2-19-60-0.88-13.75,2.79-26,10.61-35.48,8.23-10,20.53-16,35.56-17.41a3,3,0,0,1,.57,6c-26.4,2.53-42.4,20.79-40.75,46.53,1,15.57,2.85,44.55,16.79,55.74,5.31,4.26,11.9,5.72,20.15,4.44,13.15-2,24.49-6.8,33.72-14.13a3,3,0,1,1,3.73,4.7c-9.91,7.88-22.54,13.2-36.53,15.37A41.51,41.51,0,0,1,1127.38,297.67Z"/><path class="cls-2" d="M1202.2,236.51a103.14,103.14,0,0,1-11.42,13.79l-17.79,1.1-3.79-12.6s-11.29-.5-13.63-8.12a4.41,4.41,0,0,1-.15-0.53c-0.6-2.5-2.91-13.63-1.22-30.93,0,0-27.14,12-41.92,13.54-5.31.56-11.52-1.48-17.3-4.34-11.56-5.72-21.67-24.56-19.65-37.3l0-.24c3.18-18.67,12.91-5.74,12.91-5.74s2.78-15,12.2-16.12,15.42,12.81,15.42,12.81a148.32,148.32,0,0,1,55.16-2.3c36.41,5.56,27.35,30.64,27.35,30.64S1225.18,198.78,1202.2,236.51Z"/><path class="cls-1" d="M1176.86,249.49c-1.53-14,8.33-27.05,22.35-28.66a23.5,23.5,0,0,1,8.88.63c17.37,4.69,12.81,45.14-29.7,42.06Z"/><path class="cls-2" d="M1182.83,266.68c-1.51,0-3.06-.06-4.66-0.17a3,3,0,0,1,.44-6c23.41,1.7,33.87-10.25,35.69-21,1.25-7.36-1.69-13.74-7-15.17a20.59,20.59,0,0,0-7.75-.55c-12.24,1.41-21.08,12.78-19.71,25.36a3,3,0,0,1-6,.65c-1.72-15.85,9.49-30.19,25-32a26.58,26.58,0,0,1,10,.72c8.35,2.25,13.12,11.49,11.34,22C1217.94,253.91,1205.54,266.68,1182.83,266.68Z"/><path class="cls-2" d="M417.89,1285h917.28a3,3,0,0,0,0-6H417.89a3,3,0,0,0,0,6"/><path class="cls-2" d="M390.09,1279H341.48a3,3,0,0,0,0,6h48.61a3,3,0,1,0,0-6"/><path class="cls-2" d="M1380.21,1279h-24.31a3,3,0,0,0,0,6h24.31a3,3,0,0,0,0-6"/><path class="cls-2" d="M670.29,1324.6h412.49a3,3,0,0,0,0-6H670.29a3,3,0,0,0,0,6"/><path class="cls-2" d="M531.07,1324.6h86.76a3,3,0,1,0,0-6H531.07a3,3,0,0,0,0,6"/><path class="cls-2" d="M1144.43,1324.6H1173a3,3,0,0,0,0-6h-28.53a3,3,0,0,0,0,6"/><path class="cls-2" d="M883.74,364.36a2.5,2.5,0,0,1-2.11-1.16l-6.44-10.13a2.5,2.5,0,0,1,4.22-2.68l6.44,10.13A2.5,2.5,0,0,1,883.74,364.36Zm10-6a2.5,2.5,0,0,1-1.34-4.61l10.13-6.44a2.5,2.5,0,1,1,2.68,4.22l-10.13,6.44A2.49,2.49,0,0,1,893.78,358.34ZM914,345.47a2.5,2.5,0,0,1-1.34-4.61l10.13-6.44a2.5,2.5,0,1,1,2.68,4.22l-10.13,6.44A2.49,2.49,0,0,1,914,345.47Zm-43.16-1.36a2.5,2.5,0,0,1-2.11-1.16l-6.44-10.13a2.5,2.5,0,0,1,4.22-2.68L873,340.26A2.5,2.5,0,0,1,870.87,344.1Zm63.42-11.51a2.5,2.5,0,0,1-1.34-4.61l10.13-6.44a2.5,2.5,0,1,1,2.68,4.22l-10.13,6.44A2.49,2.49,0,0,1,934.29,332.59ZM858,323.85a2.5,2.5,0,0,1-2.11-1.16l-6.44-10.13a2.5,2.5,0,1,1,4.22-2.68L860.1,320A2.5,2.5,0,0,1,858,323.85Z"/><path class="cls-2" d="M944.42,326.16A2.5,2.5,0,0,1,942.3,325l-37.12-58.4-58.4,37.12a2.5,2.5,0,1,1-2.68-4.22L904.61,261a2.5,2.5,0,0,1,3.45.77l38.46,60.51A2.5,2.5,0,0,1,944.42,326.16Z"/><path class="cls-2" d="M875.45,402.55a2.5,2.5,0,0,1-2.11-1.16l-38.46-60.51a2.5,2.5,0,0,1,.77-3.45L896.16,299a2.5,2.5,0,0,1,3.45.77l38.46,60.51a2.5,2.5,0,0,1-.77,3.45l-60.51,38.46A2.5,2.5,0,0,1,875.45,402.55Zm-35-62.24,35.78,56.29,56.29-35.78-35.78-56.29Z"/><path class="cls-2" d="M837,342a2.5,2.5,0,0,1-2.44-3L843,301.06a2.5,2.5,0,0,1,4.88,1.09l-8.45,37.94A2.5,2.5,0,0,1,837,342Z"/><path class="cls-2" d="M897.5,303.58a2.5,2.5,0,0,1-2.44-3l8.45-37.94a2.5,2.5,0,0,1,4.88,1.09l-8.45,37.94A2.5,2.5,0,0,1,897.5,303.58Z"/><path class="cls-2" d="M936,364.09a2.5,2.5,0,0,1-2.44-3L942,323.11a2.5,2.5,0,0,1,4.88,1.09l-8.45,37.94A2.5,2.5,0,0,1,936,364.09Z"/><path class="cls-2" d="M876.08,399.75a2.5,2.5,0,0,1-2.44-3L876.24,385a2.5,2.5,0,0,1,4.88,1.09l-2.61,11.71A2.5,2.5,0,0,1,876.08,399.75Zm5.22-23.43a2.5,2.5,0,0,1-2.44-3l2.61-11.71a2.5,2.5,0,0,1,4.88,1.09l-2.61,11.71A2.5,2.5,0,0,1,881.3,376.33Z"/><path class="cls-2" d="M710.79,207.73l-0.37,0-82.91-12.28a2.5,2.5,0,0,1-1.12-4.48l95.2-70.63a2.5,2.5,0,0,1,4,2.37L713.26,205.6A2.5,2.5,0,0,1,710.79,207.73Zm-76.58-16.37,74.47,11,11-74.47Z"/><path class="cls-2" d="M698.29,190.88a2.5,2.5,0,0,1-2-1L692.7,185a2.5,2.5,0,1,1,4-3l3.58,4.82A2.5,2.5,0,0,1,698.29,190.88Z"/><path class="cls-2" d="M686.93,175.57a2.5,2.5,0,0,1-2-1l-7.78-10.49a2.5,2.5,0,1,1,4-3l7.78,10.49A2.5,2.5,0,0,1,686.93,175.57Zm-15.57-21a2.5,2.5,0,0,1-2-1l-7.78-10.49a2.5,2.5,0,0,1,4-3l7.78,10.49A2.5,2.5,0,0,1,671.36,154.58Zm-15.57-21a2.5,2.5,0,0,1-2-1L646,122.1a2.5,2.5,0,0,1,4-3l7.78,10.49A2.5,2.5,0,0,1,655.79,133.6Z"/><path class="cls-2" d="M640.23,112.62a2.5,2.5,0,0,1-2-1l-3.57-4.82a2.5,2.5,0,0,1,4-3l3.57,4.82A2.5,2.5,0,0,1,640.23,112.62Z"/><path class="cls-2" d="M710.79,207.73l-0.37,0-20.76-3.08a2.5,2.5,0,0,1-2.11-2.84A23.51,23.51,0,0,1,714.23,182a2.5,2.5,0,0,1,2.11,2.84l-3.08,20.76A2.5,2.5,0,0,1,710.79,207.73ZM693,200.07l15.64,2.32L711,186.75h-0.22A18.53,18.53,0,0,0,693,200.07Z"/><path class="cls-2" d="M383.49,175.11a2.5,2.5,0,0,1-.79-0.13l-67.4-22.33a2.5,2.5,0,0,1,1.57-4.75l67.4,22.33A2.5,2.5,0,0,1,383.49,175.11Z"/><path class="cls-2" d="M365.48,208.86l-4-11.63-9.7,7.1-6-2,14.06-10-5.65-16.42,7.38,2.45,3.9,11.46,9-7.2,6,2L367,194.31l5.69,16.93Z"/><path class="cls-2" d="M339.37,200.69a2.49,2.49,0,0,1-.79-0.13l-32.91-10.9a2.5,2.5,0,0,1-.75-4.35l24.58-19.08a2.5,2.5,0,0,1,3.94,1.31l8.32,30A2.5,2.5,0,0,1,339.37,200.69Zm-27.67-14.3,12,4h0l12,4-6.07-21.88Z"/><path class="cls-2" d="M355.67,151.48a2.49,2.49,0,0,1-.79-0.13l-16.45-5.45h0L322,140.45a2.5,2.5,0,0,1-.75-4.35L345.82,117a2.5,2.5,0,0,1,3.94,1.31l8.32,30A2.5,2.5,0,0,1,355.67,151.48ZM340,141.16l12,4-6.07-21.88L328,137.18Z"/><path class="cls-2" d="M377.12,141.15L373.78,140l1.31-4,3.34,1.11,2.71-8.19q1.4-4.24,4.08-5.86a7.39,7.39,0,0,1,6.4-.39,9.29,9.29,0,0,1,2.11,1,7.69,7.69,0,0,1,1.78,1.56l-2.94,2.58a2.72,2.72,0,0,0-1.73-1.41,3.34,3.34,0,0,0-3.11.33,7,7,0,0,0-2.23,3.65l-2.7,8.14L389,140.7l-1.31,4-6.21-2.06-5.16,15.58L372,156.73Z"/><path class="cls-2" d="M197.38,497.63a2.5,2.5,0,0,1-2-1c-0.65-.85-16.15-21.22-25.81-54.94s-7.31-59.2-7.21-60.27a2.5,2.5,0,0,1,5,.49c0,0.25-2.35,25.66,7,58.4s24.81,53.06,25,53.26A2.5,2.5,0,0,1,197.38,497.63Z"/><path class="cls-2" d="M244.49,484.13h-0.25a2.5,2.5,0,0,1-2.25-2.73c0-.25,2.35-25.66-7-58.4s-24.81-53.06-25-53.27a2.5,2.5,0,0,1,4-3c0.65,0.85,16.15,21.22,25.81,54.94s7.31,59.2,7.21,60.27A2.5,2.5,0,0,1,244.49,484.13Z"/><path class="cls-2" d="M204.2,376.41l-5.89,44.45-5.93,1.7,2.19-15.48-19.76-22.24,6.77-1.94,14.09,16.54,3-21.44Z"/><path class="cls-2" d="M222.63,475l-9.85-7.36-4,11.33-6.12,1.75,6-16.22-13.93-10.38,7.48-2.14,9.69,7.27,3.33-11,6.06-1.74-5.57,15.62L229.92,473Z"/><path class="cls-2" d="M183.43,440.26a2.5,2.5,0,0,1-.69-4.9l44.9-12.87a2.5,2.5,0,1,1,1.38,4.81l-44.9,12.87A2.5,2.5,0,0,1,183.43,440.26Z"/><path d="M182.53,694.62l-4.38-10.51-8.53,7.14-5.71-1.49,12.39-10.11-6.2-14.83,7,1.82L181.36,677l7.84-7.19,5.65,1.47L183,681.09l6.27,15.3Z"/><path d="M233.48,682.76l-1.28,4.93-30.75-8,1.28-4.93Zm-3.07,11.77-1.28,4.93-30.75-8,1.28-4.93Z"/><path d="M253.59,713.15l-4.38-10.51-8.53,7.14L235,708.29l12.39-10.11-6.2-14.83,7,1.82,4.29,10.36,7.84-7.19,5.65,1.47-11.8,9.82,6.27,15.3Z"/><path d="M270.62,696.9a13.11,13.11,0,0,1,6.17-3.49,15,15,0,0,1,7.57.11,14.61,14.61,0,0,1,6.6,3.58,12.86,12.86,0,0,1,3.57,6,13.79,13.79,0,0,1,0,7.17,14,14,0,0,1-3.47,6.31,12.74,12.74,0,0,1-6.08,3.51,14.92,14.92,0,0,1-7.6-.12,15.3,15.3,0,0,1-6.6-3.48,12.58,12.58,0,0,1-3.68-5.93,13.9,13.9,0,0,1,0-7.43A13.47,13.47,0,0,1,270.62,696.9Zm2,12.37a8.3,8.3,0,0,0,2.07,3.88,8.16,8.16,0,0,0,10.16,1.24,9,9,0,0,0,3.88-5.53,9.07,9.07,0,0,0-.68-6.75,7.74,7.74,0,0,0-5.12-4,7.57,7.57,0,0,0-4.39.11,8.65,8.65,0,0,0-3.68,2.41A9.75,9.75,0,0,0,272.66,709.27Z"/></svg>