<svg width="1600" height="1400" viewBox="0 0 1600 1400" fill="none" xmlns="http://www.w3.org/2000/svg">
<g id="Lead Generation 1">
<path id="Vector" d="M1142.7 825.74C1195.8 825.74 1238.84 782.697 1238.84 729.6C1238.84 676.503 1195.8 633.46 1142.7 633.46C1089.6 633.46 1046.56 676.503 1046.56 729.6C1046.56 782.697 1089.6 825.74 1142.7 825.74Z" fill="#26a699"/>
<path id="Vector_2" d="M1280.95 455.09C1317.05 455.09 1346.31 425.827 1346.31 389.73C1346.31 353.633 1317.05 324.37 1280.95 324.37C1244.85 324.37 1215.59 353.633 1215.59 389.73C1215.59 425.827 1244.85 455.09 1280.95 455.09Z" fill="#b16555"/>
<path id="Vector_3" d="M1046.56 251.28C1099.66 251.28 1142.7 208.237 1142.7 155.14C1142.7 102.043 1099.66 59 1046.56 59C993.463 59 950.42 102.043 950.42 155.14C950.42 208.237 993.463 251.28 1046.56 251.28Z" fill="#26a699"/>
<path id="Vector_4" d="M1027.75 629.75C1035.35 629.75 1041.52 623.585 1041.52 615.98C1041.52 608.375 1035.35 602.21 1027.75 602.21C1020.15 602.21 1013.98 608.375 1013.98 615.98C1013.98 623.585 1020.15 629.75 1027.75 629.75Z" fill="#26a699"/>
<path id="Vector_5" d="M1096.67 326.94C1101.22 326.94 1104.91 323.251 1104.91 318.7C1104.91 314.149 1101.22 310.46 1096.67 310.46C1092.12 310.46 1088.43 314.149 1088.43 318.7C1088.43 323.251 1092.12 326.94 1096.67 326.94Z" fill="#b16555"/>
<path id="Vector_6" d="M1254.21 218.68L1257.3 227.15C1258.26 229.785 1259.79 232.177 1261.77 234.16C1263.75 236.143 1266.15 237.669 1268.78 238.63L1277.25 241.72L1268.78 244.81C1266.15 245.771 1263.75 247.297 1261.77 249.28C1259.79 251.263 1258.26 253.655 1257.3 256.29L1254.21 264.76L1251.12 256.29C1250.16 253.655 1248.63 251.263 1246.65 249.28C1244.67 247.297 1242.27 245.771 1239.64 244.81L1231.17 241.72L1239.64 238.63C1242.27 237.669 1244.67 236.143 1246.65 234.16C1248.63 232.177 1250.16 229.785 1251.12 227.15L1254.21 218.68Z" fill="#26a699"/>
<path id="Vector_7" d="M1271.56 521L1276.06 533.35C1277.46 537.191 1279.68 540.679 1282.57 543.569C1285.46 546.459 1288.95 548.682 1292.79 550.08L1305.14 554.58L1292.79 559.08C1288.95 560.479 1285.46 562.701 1282.57 565.591C1279.68 568.481 1277.46 571.969 1276.06 575.81L1271.56 588.16L1267.06 575.81C1265.66 571.969 1263.44 568.481 1260.55 565.591C1257.66 562.701 1254.17 560.479 1250.33 559.08L1237.98 554.58L1250.33 550.08C1254.17 548.682 1257.66 546.459 1260.55 543.569C1263.44 540.679 1265.66 537.191 1267.06 533.35L1271.56 521Z" fill="#b16555"/>
<path id="Vector_8" d="M927.16 703.37C925.491 714.688 922.902 725.852 919.42 736.75C919.42 736.75 907.36 742.19 888.42 749.54C849 764.85 779.72 788.4 727.13 788.4C649.26 788.4 675.38 664.11 758.47 671.4L842.35 668.4L881.55 576.76L922.61 571.86C922.61 571.86 936.9 639.65 927.16 703.37Z" fill="#b16555"/>
<path id="Vector_9" d="M891.76 709.21C891.151 709.211 890.559 709.007 890.08 708.63L848.22 675.79C847.939 675.569 847.704 675.296 847.529 674.984C847.354 674.673 847.242 674.33 847.199 673.975C847.156 673.621 847.184 673.261 847.28 672.917C847.376 672.573 847.539 672.251 847.76 671.97C847.981 671.689 848.254 671.454 848.566 671.279C848.877 671.104 849.22 670.992 849.575 670.949C849.929 670.906 850.289 670.934 850.633 671.03C850.977 671.126 851.299 671.289 851.58 671.51L893.44 704.35C893.885 704.699 894.21 705.179 894.37 705.722C894.53 706.265 894.517 706.844 894.332 707.379C894.147 707.914 893.8 708.377 893.339 708.706C892.878 709.034 892.326 709.21 891.76 709.21V709.21Z" fill="#262424"/>
<path id="Vector_10" d="M927.16 703.37C925.491 714.688 922.902 725.852 919.42 736.75C919.42 736.75 907.36 742.19 888.42 749.54C887.9 739.46 891.58 728.36 899.42 719.14C907.26 709.92 917.26 704.61 927.16 703.37Z" fill="white"/>
<path id="Vector_11" d="M367.72 561.15C367.72 561.15 386.26 515.86 390.23 511.36C394.2 506.86 418.04 494.94 428.9 497.06C439.76 499.18 437.11 520.9 436.85 526.72C436.59 532.54 424.14 538.9 424.14 538.9C424.14 538.9 438.71 534.66 439.77 539.96C440.83 545.26 411.69 556.38 411.69 556.38C411.69 556.38 427.05 554.79 428.69 558.23C430.33 561.67 406.97 573.33 397.97 575.23C388.97 577.13 367.72 561.15 367.72 561.15Z" fill="white"/>
<path id="Vector_12" d="M396.44 578C386.03 578 368.21 564.88 366.09 563.28C365.611 562.918 365.265 562.409 365.105 561.83C364.946 561.251 364.983 560.636 365.21 560.08C368.34 552.45 384.13 514.08 388.21 509.52C392.84 504.28 417.5 492.02 429.44 494.35C441.6 496.72 440.27 516.35 439.71 524.75C439.66 525.56 439.61 526.26 439.58 526.81C439.45 529.62 437.58 532.3 435.14 534.59C436.795 534.611 438.421 535.029 439.88 535.81C440.537 536.192 441.106 536.71 441.547 537.329C441.988 537.948 442.293 538.654 442.44 539.4C443.09 542.63 440.76 546.1 427.31 552.58L425 553.69C428 554.21 430.25 555.25 431.1 557.1C431.34 557.644 431.45 558.235 431.422 558.829C431.394 559.422 431.229 560.001 430.94 560.52C428.08 566.19 406.35 576.23 398.45 577.86C397.786 577.974 397.113 578.021 396.44 578V578ZM371 560.21C379.07 565.99 392 573.61 397.32 572.52C405 570.94 420.7 562.98 425.03 559.2C422.46 558.64 417.03 558.56 411.92 559.08C411.267 559.142 410.614 558.966 410.081 558.584C409.547 558.203 409.17 557.641 409.018 557.003C408.865 556.365 408.949 555.694 409.252 555.113C409.556 554.531 410.06 554.079 410.67 553.84C423.39 549 435 543 436.89 540.35C435.49 539.58 429.8 540.09 424.89 541.51C424.254 541.665 423.583 541.585 423.001 541.285C422.42 540.985 421.965 540.485 421.722 539.877C421.479 539.269 421.463 538.594 421.678 537.976C421.892 537.357 422.323 536.837 422.89 536.51C427.52 534.14 434 529.39 434.13 526.62C434.13 526.04 434.21 525.3 434.26 524.44C434.69 518.08 435.83 501.2 428.38 499.75C418.92 497.91 395.92 509.04 392.27 513.18C389.69 516.07 378.23 542.75 371 560.21Z" fill="#262424"/>
<path id="Vector_13" d="M624.42 718.49C569.86 718.516 516.846 700.366 473.751 666.907C430.655 633.447 399.934 586.584 386.439 533.719C372.945 480.855 377.445 425.001 399.23 374.979C421.015 324.957 458.843 283.618 506.74 257.49L746.41 126.68C752.643 123.275 759.973 122.485 766.788 124.484C773.603 126.483 779.344 131.108 782.75 137.34L825 214.69C828.385 220.922 829.164 228.241 827.166 235.046C825.168 241.85 820.557 247.587 814.34 251L575.65 381.32C525 409 506 472.28 533.2 522.44C539.718 534.438 548.538 545.034 559.155 553.62C569.772 562.206 581.978 568.613 595.075 572.476C608.171 576.339 621.901 577.582 635.479 576.133C649.056 574.683 662.214 570.571 674.2 564.03L913.86 433.22C916.946 431.533 920.334 430.47 923.831 430.092C927.327 429.715 930.864 430.03 934.239 431.02C937.614 432.01 940.76 433.655 943.499 435.862C946.238 438.069 948.515 440.793 950.2 443.88L992.46 521.23C995.865 527.465 996.653 534.798 994.652 541.615C992.652 548.431 988.025 554.174 981.79 557.58L742.12 688.4C713.337 704.186 681.665 714.002 649 717.26C640.83 718.07 632.56 718.49 624.42 718.49Z" fill="#26a699"/>
<path id="Vector_14" d="M653.63 177.36L746.41 126.68C752.643 123.275 759.973 122.485 766.788 124.484C773.603 126.483 779.344 131.108 782.75 137.34L825 214.69C828.385 220.922 829.164 228.241 827.166 235.046C825.168 241.85 820.557 247.587 814.34 251L721.56 301.68L653.63 177.36Z" fill="#b16555"/>
<path id="Vector_15" d="M821.08 483.9L913.86 433.22C916.946 431.533 920.334 430.47 923.831 430.092C927.327 429.715 930.864 430.03 934.239 431.02C937.614 432.01 940.76 433.655 943.499 435.862C946.238 438.068 948.515 440.793 950.2 443.88L992.46 521.23C995.865 527.465 996.653 534.798 994.652 541.615C992.652 548.431 988.025 554.174 981.79 557.58L889 608.26L821.08 483.9Z" fill="#b16555"/>
<path id="Vector_16" d="M527.71 673C527.71 673 625.63 660.29 758.47 671.45C758.47 671.45 787.81 702.8 751.75 795.8C715.69 888.8 671.45 1032.8 671.45 1032.8H385C385 1032.8 423.1 828.24 527.71 673Z" fill="#b16555"/>
<path id="Vector_17" d="M758.54 779.41C758.112 779.41 757.689 779.309 757.308 779.115C756.926 778.921 756.595 778.639 756.343 778.293C756.09 777.947 755.923 777.546 755.855 777.124C755.787 776.701 755.819 776.268 755.95 775.86C773.87 720.23 766.18 691.24 760.01 678.86C759.728 678.221 759.703 677.498 759.94 676.84C760.177 676.183 760.657 675.642 761.282 675.33C761.907 675.017 762.628 674.957 763.296 675.162C763.964 675.367 764.528 675.821 764.87 676.43C771.42 689.5 779.64 720.02 761.13 777.49C760.959 778.044 760.616 778.53 760.15 778.875C759.684 779.221 759.12 779.408 758.54 779.41V779.41Z" fill="#262424"/>
<path id="Vector_18" d="M660.13 1015.48L410.13 1011.75C409.409 1011.75 408.717 1011.46 408.207 1010.95C407.697 1010.44 407.41 1009.75 407.41 1009.03C407.41 1008.31 407.697 1007.62 408.207 1007.11C408.717 1006.6 409.409 1006.31 410.13 1006.31L660.13 1010.04C660.851 1010.04 661.543 1010.33 662.053 1010.84C662.563 1011.35 662.85 1012.04 662.85 1012.76C662.85 1013.48 662.563 1014.17 662.053 1014.68C661.543 1015.19 660.851 1015.48 660.13 1015.48Z" fill="#262424"/>
<path id="Vector_19" d="M643.42 730.14C645.92 731.43 648.26 732.55 650.26 733.63C656.26 719.71 667.79 702.94 667.79 702.94C673.3 715.54 674.16 730.94 673.66 737.87L675.14 737.73C700.56 734.93 716.22 708.01 706.35 685.28C700.35 671.53 688.97 661.46 676.95 659.61C657.67 656.61 643.85 665.26 634.56 675.33C618.57 692.69 623.13 719.63 643.42 730.14Z" fill="white"/>
<path id="Vector_20" d="M673.66 740.59C673.286 740.59 672.916 740.512 672.574 740.363C672.231 740.213 671.923 739.994 671.669 739.72C671.415 739.446 671.22 739.123 671.096 738.77C670.972 738.417 670.923 738.043 670.95 737.67C671.379 727.918 670.089 718.166 667.14 708.86C663.36 714.71 656.76 725.42 652.76 734.7C652.609 735.041 652.389 735.347 652.114 735.6C651.839 735.852 651.515 736.045 651.163 736.167C650.81 736.289 650.436 736.337 650.064 736.309C649.692 736.28 649.33 736.175 649 736C647.88 735.4 646.65 734.78 645.35 734.13C644.35 733.62 643.29 733.13 642.2 732.53C637.143 729.934 632.759 726.197 629.393 721.615C626.028 717.034 623.775 711.732 622.81 706.13C621.797 700.301 622.154 694.315 623.851 688.647C625.548 682.979 628.54 677.783 632.59 673.47C644.97 660.03 660.46 654.3 677.39 656.9C690.17 658.9 702.53 669.57 708.87 684.17C711.343 689.913 712.419 696.16 712.008 702.399C711.598 708.638 709.714 714.691 706.51 720.06C703.319 725.661 698.846 730.425 693.457 733.962C688.068 737.5 681.918 739.709 675.51 740.41L673.95 740.56H673.73L673.66 740.59ZM667.79 700.22H668C668.482 700.267 668.943 700.442 669.335 700.727C669.727 701.011 670.036 701.396 670.23 701.84C675.33 713.51 676.52 727.04 676.44 734.84C681.694 734.017 686.695 732.021 691.071 729C695.448 725.979 699.088 722.011 701.72 717.39C704.494 712.756 706.129 707.529 706.491 702.14C706.852 696.751 705.93 691.353 703.8 686.39C698.19 673.46 687.46 664.01 676.48 662.33C661.21 659.99 647.76 664.99 636.48 677.21C633.005 680.907 630.436 685.36 628.975 690.219C627.514 695.078 627.201 700.21 628.06 705.21C628.884 709.987 630.807 714.507 633.678 718.414C636.548 722.32 640.287 725.506 644.6 727.72V727.72C645.66 728.27 646.69 728.79 647.68 729.28L649 729.9C655.22 716.55 665.15 702.06 665.59 701.41C665.836 701.052 666.164 700.758 666.547 700.553C666.929 700.347 667.356 700.237 667.79 700.23V700.22Z" fill="#262424"/>
<path id="Vector_21" d="M682.5 608.6L672.5 632.4L653 676.07C662.25 691.65 677.28 695.63 694.29 691.84L700.88 672.31L710.88 642.73L682.5 608.6Z" fill="white"/>
<path id="Vector_22" d="M682.83 695.9C668.91 695.9 657.93 689.65 650.69 677.45C650.468 677.077 650.339 676.656 650.313 676.223C650.287 675.79 650.365 675.357 650.54 674.96L670 631.29L680 607.54C680.181 607.109 680.471 606.733 680.84 606.447C681.21 606.16 681.646 605.974 682.109 605.906C682.571 605.837 683.043 605.889 683.479 606.056C683.916 606.224 684.302 606.5 684.6 606.86L713 641C713.298 641.357 713.499 641.784 713.585 642.241C713.671 642.698 713.638 643.169 713.49 643.61L696.91 692.71C696.758 693.154 696.495 693.551 696.144 693.863C695.794 694.175 695.369 694.391 694.91 694.49C690.947 695.4 686.896 695.873 682.83 695.9V695.9ZM656.09 675.9C663.92 688.14 676.09 692.72 692.23 689.54L707.83 643.35L683.26 613.82L675 633.45L656.09 675.9Z" fill="#262424"/>
<path id="Vector_23" d="M718.39 1175.76L721.84 1255.62H753.22L759.32 1175.76H718.39Z" fill="white"/>
<path id="Vector_24" d="M753.22 1258.34H721.84C721.139 1258.34 720.465 1258.07 719.958 1257.59C719.451 1257.1 719.151 1256.44 719.12 1255.74L715.68 1175.88C715.664 1175.51 715.722 1175.15 715.852 1174.8C715.981 1174.46 716.179 1174.14 716.433 1173.88C716.687 1173.61 716.993 1173.4 717.331 1173.26C717.669 1173.11 718.033 1173.04 718.4 1173.04H759.32C759.695 1173.04 760.065 1173.13 760.407 1173.28C760.749 1173.43 761.055 1173.66 761.307 1173.93C761.559 1174.21 761.75 1174.54 761.869 1174.89C761.989 1175.25 762.033 1175.63 762 1176L755.91 1255.86C755.85 1256.53 755.542 1257.16 755.044 1257.62C754.547 1258.08 753.896 1258.34 753.22 1258.34V1258.34ZM724.44 1252.9H750.7L756.38 1178.48H721.23L724.44 1252.9Z" fill="#262424"/>
<path id="Vector_25" d="M699.33 1331.9C698.33 1343.26 697.93 1350.71 697.93 1350.71H852.68C863.27 1294.29 811.63 1303.3 811.63 1303.3C804.116 1311.13 799.292 1321.15 797.86 1331.91H699.33V1331.9Z" fill="white"/>
<path id="Vector_26" d="M852.68 1353.42H697.93C697.56 1353.42 697.194 1353.34 696.854 1353.2C696.514 1353.05 696.208 1352.83 695.954 1352.56C695.701 1352.29 695.505 1351.98 695.378 1351.63C695.252 1351.28 695.198 1350.91 695.22 1350.54C695.22 1350.46 695.67 1342.92 696.63 1331.66C696.688 1330.98 696.998 1330.35 697.5 1329.89C698.002 1329.43 698.659 1329.17 699.34 1329.17H795.5C797.392 1318.71 802.328 1309.05 809.69 1301.38C810.089 1300.97 810.607 1300.7 811.17 1300.6C812.11 1300.44 834.29 1296.75 847.54 1310.17C856.19 1318.94 858.83 1332.74 855.36 1351.17C855.249 1351.8 854.92 1352.37 854.43 1352.78C853.94 1353.19 853.32 1353.42 852.68 1353.42V1353.42ZM700.83 1348H850.4C852.92 1332.55 850.66 1321.13 843.68 1314C833.77 1303.94 816.9 1305.34 812.94 1305.83C806.246 1313.13 801.929 1322.29 800.56 1332.1C800.502 1332.78 800.192 1333.41 799.69 1333.87C799.188 1334.33 798.532 1334.59 797.85 1334.59H701.85C701.35 1340.53 701 1345.2 700.83 1348Z" fill="#262424"/>
<path id="Vector_27" d="M761.57 1245H712.3C705.3 1270.78 701.3 1309.16 699.3 1331.87H797.82C799.252 1321.11 804.076 1311.09 811.59 1303.26C779.58 1280.25 761.57 1245 761.57 1245Z" fill="#26a699"/>
<path id="Vector_28" d="M792.29 1317.73C791.801 1317.73 791.32 1317.6 790.9 1317.35C757.22 1297.35 735.34 1253.12 734.43 1251.25C734.153 1250.61 734.133 1249.88 734.375 1249.23C734.618 1248.57 735.103 1248.04 735.731 1247.73C736.358 1247.42 737.08 1247.37 737.747 1247.58C738.413 1247.79 738.973 1248.25 739.31 1248.86C739.53 1249.3 761.41 1293.47 793.68 1312.68C794.188 1312.99 794.582 1313.45 794.803 1314C795.023 1314.55 795.057 1315.16 794.899 1315.73C794.742 1316.3 794.402 1316.81 793.93 1317.17C793.459 1317.53 792.883 1317.73 792.29 1317.73Z" fill="#262424"/>
<path id="Vector_29" d="M725.84 1315.01C732.478 1315.01 737.86 1305.67 737.86 1294.15C737.86 1282.63 732.478 1273.29 725.84 1273.29C719.202 1273.29 713.82 1282.63 713.82 1294.15C713.82 1305.67 719.202 1315.01 725.84 1315.01Z" fill="white"/>
<path id="Vector_30" d="M725.84 1317.73C717.58 1317.73 711.1 1307.37 711.1 1294.15C711.1 1280.93 717.57 1270.57 725.84 1270.57C734.11 1270.57 740.58 1280.93 740.58 1294.15C740.58 1307.37 734.11 1317.73 725.84 1317.73ZM725.84 1276.01C721.44 1276.01 716.54 1283.46 716.54 1294.15C716.54 1304.84 721.44 1312.29 725.84 1312.29C730.24 1312.29 735.14 1304.84 735.14 1294.15C735.14 1283.46 730.24 1276 725.84 1276V1276.01Z" fill="#262424"/>
<path id="Vector_31" d="M813.74 998.66C813.6 1000.55 813.44 1002.5 813.28 1004.5C807.76 1072.86 793.88 1203.97 793.88 1203.97H709.65L702.5 1084.78L496.7 1201.58L535.1 1032.78C535.1 1032.78 729.52 920.3 751.77 921.89C753.29 922 754.89 922.18 756.56 922.45C758.23 922.72 760.1 923.07 761.95 923.45C784.52 928.63 814.67 945.13 815.47 966.34C815.64 971.13 815 982.84 813.74 998.66Z" fill="#26a699"/>
<path id="Vector_32" d="M813.74 998.66C793.86 1002.48 771.92 986.78 763.13 961.51C758.5 948.18 758.38 934.66 761.95 923.51C784.52 928.69 814.67 945.19 815.47 966.4C815.64 971.13 815 982.84 813.74 998.66Z" fill="white"/>
<path id="Vector_33" d="M742.76 1174.38C742.067 1174.38 741.401 1174.11 740.897 1173.64C740.394 1173.16 740.091 1172.51 740.05 1171.82L731.27 1017L546.35 1105.8C546.026 1105.97 545.67 1106.08 545.304 1106.11C544.938 1106.15 544.569 1106.1 544.22 1105.99C543.87 1105.88 543.547 1105.69 543.271 1105.45C542.994 1105.21 542.77 1104.91 542.611 1104.58C542.452 1104.25 542.362 1103.89 542.346 1103.52C542.33 1103.15 542.389 1102.79 542.519 1102.44C542.649 1102.1 542.847 1101.78 543.101 1101.52C543.356 1101.25 543.662 1101.04 544 1100.9L732.58 1010.34C732.983 1010.15 733.427 1010.06 733.873 1010.08C734.32 1010.1 734.754 1010.22 735.139 1010.45C735.523 1010.68 735.846 1011 736.078 1011.38C736.31 1011.76 736.445 1012.19 736.47 1012.64L745.47 1171.54C745.511 1172.26 745.264 1172.97 744.784 1173.5C744.304 1174.04 743.63 1174.37 742.91 1174.41H742.75L742.76 1174.38Z" fill="#262424"/>
<path id="Vector_34" d="M784.61 1188.41H721.84C721.119 1188.41 720.427 1188.12 719.917 1187.61C719.407 1187.1 719.12 1186.41 719.12 1185.69C719.12 1184.97 719.407 1184.28 719.917 1183.77C720.427 1183.26 721.119 1182.97 721.84 1182.97H784.61C785.331 1182.97 786.023 1183.26 786.533 1183.77C787.043 1184.28 787.33 1184.97 787.33 1185.69C787.33 1186.41 787.043 1187.1 786.533 1187.61C786.023 1188.12 785.331 1188.41 784.61 1188.41V1188.41Z" fill="#262424"/>
<path id="Vector_35" d="M707 1071.61C706.541 1071.61 706.09 1071.49 705.689 1071.27C705.287 1071.05 704.948 1070.73 704.704 1070.34C704.459 1069.95 704.317 1069.51 704.29 1069.05C704.263 1068.59 704.353 1068.13 704.55 1067.72L741.41 990.38C741.728 989.742 742.284 989.255 742.958 989.023C743.632 988.791 744.37 988.833 745.014 989.14C745.657 989.446 746.155 989.993 746.399 990.663C746.643 991.332 746.615 992.071 746.32 992.72L709.46 1070.06C709.239 1070.52 708.89 1070.92 708.454 1071.19C708.019 1071.47 707.515 1071.61 707 1071.61Z" fill="#262424"/>
<path id="Vector_36" d="M386 1339.45C373 1339.93 294.62 1342.23 292 1330.84C289.38 1319.45 304.1 1208.28 329 1206.75C333.171 1206.45 337.364 1206.85 341.4 1207.95C345.536 1209.08 349.393 1211.05 352.723 1213.75C356.053 1216.45 358.783 1219.82 360.74 1223.63L358.4 1285.81C392.35 1287.66 399 1339 386 1339.45Z" fill="#26a699"/>
<path id="Vector_37" d="M386 1339.45C373 1339.93 294.62 1342.23 292 1330.84C289.38 1319.45 304.1 1208.28 329 1206.75C333.171 1206.45 337.364 1206.85 341.4 1207.95C306.66 1232.46 311.26 1314.42 311.26 1314.42C323.97 1288.2 358.4 1285.81 358.4 1285.81C392.35 1287.66 399 1339 386 1339.45Z" fill="white"/>
<path id="Vector_38" d="M356.95 1342.68C349.95 1342.68 342.43 1342.58 335.01 1342.31C296.65 1340.91 290.39 1336.04 289.32 1331.46C286.74 1320.34 297.69 1237.54 316.55 1212.25C320.41 1207.07 324.55 1204.31 328.89 1204.04C333.365 1203.72 337.862 1204.16 342.19 1205.34C342.685 1205.48 343.129 1205.76 343.473 1206.14C343.817 1206.52 344.045 1206.99 344.132 1207.5C344.219 1208 344.161 1208.53 343.964 1209C343.767 1209.47 343.44 1209.88 343.02 1210.18C316.61 1228.82 313.86 1283.47 313.85 1305.18C329.23 1285.33 356.96 1283.18 358.27 1283.08H358.61C383.61 1284.45 395.07 1310.39 394.92 1327.5C394.84 1336.5 391.55 1341.95 386.11 1342.15C383 1342.28 371.23 1342.68 356.95 1342.68ZM331.69 1209.39C330.877 1209.39 330.05 1209.42 329.21 1209.47C326.56 1209.63 323.76 1211.66 320.9 1215.47C302.46 1240.21 292.62 1321.63 294.61 1330.2C294.67 1330.41 296.61 1335.46 335.45 1336.86C357.81 1337.66 381.39 1336.86 385.89 1336.7C387.95 1336.62 389.42 1332.81 389.47 1327.44C389.58 1314.5 380.6 1289.85 358.47 1288.51C356.01 1288.73 325.18 1291.98 313.74 1315.58C313.478 1316.12 313.046 1316.56 312.51 1316.82C311.974 1317.09 311.364 1317.18 310.776 1317.06C310.188 1316.95 309.654 1316.64 309.256 1316.19C308.859 1315.75 308.622 1315.18 308.58 1314.58C308.4 1311.33 304.68 1238.1 335.18 1209.58C334.047 1209.45 332.883 1209.39 331.69 1209.39Z" fill="#262424"/>
<path id="Vector_39" d="M556.08 1032.78C546.31 1064.95 526.25 1130.19 507.56 1185.69C490.43 1236.54 469.04 1287.22 445.05 1315.82C432.69 1330.57 419.63 1339.44 406.12 1339.44C393.34 1339.44 381.58 1334.75 371.52 1328.39C350.3 1314.99 336.6 1294.15 336.6 1294.15C318.32 1244.09 353.68 1221.84 353.68 1221.84L366.39 1225.02L399 1032.78H556H556.08Z" fill="#26a699"/>
<path id="Vector_40" d="M335.8 1294.62C335.232 1294.62 334.679 1294.44 334.218 1294.11C333.757 1293.78 333.412 1293.31 333.23 1292.77C324.43 1266.77 330 1248.28 336.23 1237.35C340.144 1230.28 345.615 1224.19 352.23 1219.55C352.839 1219.19 353.565 1219.08 354.254 1219.25C354.942 1219.41 355.538 1219.84 355.916 1220.44C356.294 1221.04 356.423 1221.76 356.276 1222.45C356.129 1223.15 355.718 1223.76 355.13 1224.15C353.81 1224.99 322.88 1245.28 338.38 1291.03C338.518 1291.44 338.557 1291.88 338.493 1292.3C338.429 1292.73 338.264 1293.14 338.012 1293.49C337.759 1293.84 337.427 1294.12 337.043 1294.32C336.658 1294.52 336.232 1294.62 335.8 1294.62Z" fill="#262424"/>
<path id="Vector_41" d="M508.87 1184.52C508.439 1184.52 508.014 1184.42 507.631 1184.22C507.247 1184.02 506.916 1183.74 506.664 1183.39C506.412 1183.04 506.247 1182.64 506.182 1182.21C506.117 1181.78 506.154 1181.35 506.29 1180.94C523.36 1130 541.52 1071.23 550.82 1040.73C550.916 1040.38 551.082 1040.05 551.307 1039.76C551.532 1039.48 551.813 1039.24 552.131 1039.07C552.45 1038.89 552.801 1038.78 553.163 1038.74C553.525 1038.71 553.891 1038.74 554.239 1038.85C554.587 1038.95 554.91 1039.13 555.189 1039.36C555.468 1039.6 555.697 1039.88 555.863 1040.21C556.03 1040.53 556.129 1040.88 556.156 1041.25C556.183 1041.61 556.137 1041.98 556.02 1042.32C546.71 1072.85 528.54 1131.67 511.45 1182.68C511.266 1183.22 510.918 1183.68 510.456 1184.01C509.993 1184.34 509.438 1184.52 508.87 1184.52Z" fill="#262424"/>
<path id="Vector_42" d="M445.06 1315.82C432.7 1330.57 419.64 1339.44 406.13 1339.44C393.35 1339.44 381.59 1334.75 371.53 1328.39C374.28 1314.68 386.96 1302.82 403.91 1299.67C421.32 1296.44 437.85 1303.4 445.06 1315.82Z" fill="white"/>
<path id="Vector_43" d="M349.31 1294.69C348.701 1294.69 348.109 1294.48 347.63 1294.11C347.152 1293.73 346.813 1293.2 346.67 1292.61C338.13 1257.02 355.53 1233.15 356.27 1232.15C356.709 1231.59 357.347 1231.23 358.05 1231.14C358.752 1231.04 359.464 1231.23 360.032 1231.65C360.6 1232.08 360.98 1232.71 361.092 1233.4C361.204 1234.1 361.038 1234.82 360.63 1235.4C360.41 1235.69 344.04 1258.4 351.95 1291.35C352.043 1291.75 352.045 1292.16 351.956 1292.56C351.867 1292.96 351.689 1293.34 351.436 1293.66C351.182 1293.98 350.859 1294.24 350.491 1294.42C350.123 1294.6 349.719 1294.69 349.31 1294.69V1294.69Z" fill="#262424"/>
<path id="Vector_44" d="M374.14 1271C373.816 1271 373.494 1270.94 373.19 1270.83L355.51 1264.27C355.168 1264.15 354.854 1263.97 354.585 1263.72C354.316 1263.48 354.098 1263.19 353.944 1262.86C353.79 1262.53 353.703 1262.18 353.687 1261.82C353.672 1261.46 353.729 1261.1 353.854 1260.76C353.98 1260.42 354.172 1260.11 354.419 1259.84C354.666 1259.58 354.964 1259.37 355.294 1259.22C355.624 1259.07 355.981 1258.99 356.342 1258.98C356.704 1258.97 357.063 1259.04 357.4 1259.17L372.04 1264.6L413.78 1035.82C413.846 1035.47 413.98 1035.13 414.175 1034.83C414.37 1034.53 414.622 1034.28 414.917 1034.07C415.212 1033.87 415.544 1033.73 415.893 1033.66C416.243 1033.58 416.604 1033.58 416.955 1033.64C417.306 1033.71 417.641 1033.84 417.941 1034.04C418.24 1034.23 418.498 1034.49 418.7 1034.78C418.902 1035.08 419.044 1035.41 419.118 1035.76C419.191 1036.11 419.196 1036.47 419.13 1036.82L376.81 1268.82C376.685 1269.44 376.351 1269.99 375.864 1270.39C375.378 1270.78 374.768 1271 374.14 1271Z" fill="#262424"/>
<path id="Vector_45" d="M410.09 1074C409.414 1074 408.762 1073.75 408.261 1073.29C407.76 1072.84 407.447 1072.21 407.382 1071.54C407.317 1070.87 407.505 1070.19 407.91 1069.65C408.314 1069.11 408.906 1068.74 409.57 1068.61L420.64 1066.45C424.454 1065.71 427.965 1063.86 430.734 1061.14C433.504 1058.41 435.408 1054.93 436.21 1051.13L439.45 1035.82C439.613 1035.13 440.041 1034.53 440.641 1034.15C441.241 1033.77 441.967 1033.64 442.663 1033.78C443.358 1033.93 443.968 1034.34 444.362 1034.94C444.756 1035.53 444.902 1036.25 444.77 1036.95L441.53 1052.26C440.509 1057.11 438.081 1061.54 434.55 1065.02C431.02 1068.49 426.543 1070.85 421.68 1071.79L410.61 1073.95C410.439 1073.98 410.265 1074 410.09 1074V1074Z" fill="#262424"/>
<path id="Vector_46" d="M762.21 633.18C759.54 657.13 752.28 685.73 723.56 680.96C689.42 675.29 667.56 650.88 667.56 618.33C667.56 585.78 682.79 567.59 721.72 571.73C725.032 572.073 728.311 572.692 731.52 573.58C753.88 579.86 764.96 598.58 763.33 620.35C763.06 624.3 762.72 628.66 762.21 633.18Z" fill="white"/>
<path id="Vector_47" d="M729.61 684.2C727.432 684.192 725.258 684.005 723.11 683.64C709.17 681.33 696.71 675.81 687.11 667.64C686.822 667.415 686.583 667.134 686.406 666.814C686.229 666.495 686.118 666.143 686.08 665.779C686.042 665.416 686.078 665.048 686.185 664.699C686.292 664.35 686.469 664.026 686.704 663.746C686.939 663.467 687.229 663.237 687.554 663.072C687.88 662.906 688.236 662.808 688.601 662.784C688.965 662.759 689.331 662.808 689.676 662.927C690.021 663.047 690.339 663.235 690.61 663.48C699.47 671 711 676.13 724 678.28C731.87 679.59 738.22 678.28 743.41 674.4C754.63 665.91 757.97 646.64 759.51 632.88C760.02 628.39 760.36 624.14 760.65 620.17C762.26 598.68 750.82 581.84 730.81 576.17C730.15 575.947 729.6 575.479 729.275 574.862C728.95 574.246 728.874 573.528 729.062 572.857C729.251 572.186 729.69 571.613 730.289 571.257C730.887 570.9 731.6 570.787 732.28 570.94C754.93 577.3 767.88 596.3 766.07 620.53C765.78 624.38 765.43 628.87 764.91 633.45C763.26 648.2 759.58 668.94 746.69 678.7C741.769 682.387 735.757 684.323 729.61 684.2Z" fill="#262424"/>
<path id="Vector_48" d="M657.35 624.35C660.592 629.155 664.246 633.668 668.27 637.84L685.51 639.09L689.32 626.92C689.32 626.92 700.32 626.55 702.61 619.19C702.671 619.02 702.721 618.846 702.76 618.67C703.36 616.26 705.76 605.49 704.26 588.67C704.26 588.67 730.45 600.56 744.75 602.23C749.89 602.83 755.93 600.91 761.56 598.23C772.83 592.81 782.82 574.65 780.99 562.23V561.99C778.1 543.86 768.54 556.3 768.54 556.3C768.54 556.3 766 541.7 756.88 540.55C747.76 539.4 741.81 552.81 741.81 552.81C724.329 548.54 706.202 547.591 688.37 550.01C653.02 555.01 661.55 579.43 661.55 579.43C661.55 579.43 635.47 587.54 657.35 624.35Z" fill="#262424"/>
<path id="Vector_49" d="M681.78 637.19C683.4 623.61 673.98 610.88 660.41 609.19C657.533 608.813 654.611 608.99 651.8 609.71C634.91 614.08 638.92 653.33 680.15 650.78L681.78 637.19Z" fill="white"/>
<path id="Vector_50" d="M676.45 653.6C654.14 653.6 642.11 641.06 640.04 628.02C638.44 617.95 643.1 609.14 651.12 607.02C654.263 606.213 657.532 606.012 660.75 606.43C675.65 608.3 686.3 622.23 684.48 637.43C684.381 638.135 684.01 638.774 683.445 639.208C682.881 639.643 682.168 639.838 681.461 639.753C680.754 639.668 680.109 639.309 679.663 638.753C679.218 638.197 679.009 637.489 679.08 636.78C680.55 624.5 672.02 613.29 660.08 611.78C657.544 611.449 654.968 611.605 652.49 612.24C647.24 613.6 644.27 619.84 645.42 627.08C647.09 637.6 657.14 649.38 680 647.96C680.357 647.938 680.714 647.986 681.052 648.102C681.39 648.217 681.702 648.399 681.97 648.635C682.237 648.871 682.456 649.158 682.613 649.479C682.77 649.8 682.863 650.148 682.885 650.505C682.907 650.862 682.859 651.219 682.743 651.557C682.628 651.895 682.446 652.207 682.21 652.475C681.974 652.742 681.687 652.961 681.366 653.118C681.045 653.275 680.697 653.368 680.34 653.39C679.007 653.53 677.71 653.6 676.45 653.6Z" fill="#262424"/>
<path id="Vector_51" d="M478.43 788.14C447.155 776.232 416.975 761.627 388.23 744.49C368.29 732.49 355.53 723.49 355.53 723.49C353.73 711.86 352.44 700.11 351.53 688.49C346.53 622.05 354.97 561.35 354.97 561.35C385.16 543.35 406.88 566.65 406.88 566.65C407.94 592.65 424.88 655.11 424.88 655.11L527.71 673C614.61 689.73 558.42 818.33 478.43 788.14Z" fill="#b16555"/>
<path id="Vector_52" d="M365.73 568.57C367.779 568.57 369.44 566.909 369.44 564.86C369.44 562.811 367.779 561.15 365.73 561.15C363.681 561.15 362.02 562.811 362.02 564.86C362.02 566.909 363.681 568.57 365.73 568.57Z" fill="white"/>
<path id="Vector_53" d="M365.73 571.28C364.458 571.28 363.215 570.903 362.158 570.196C361.1 569.49 360.276 568.486 359.789 567.311C359.303 566.136 359.175 564.843 359.424 563.596C359.672 562.348 360.284 561.203 361.183 560.303C362.083 559.404 363.228 558.792 364.476 558.544C365.723 558.295 367.016 558.423 368.191 558.91C369.366 559.396 370.37 560.22 371.076 561.278C371.783 562.335 372.16 563.578 372.16 564.85C372.16 566.555 371.483 568.191 370.277 569.397C369.071 570.603 367.435 571.28 365.73 571.28V571.28ZM365.73 563.86C365.532 563.86 365.339 563.919 365.174 564.029C365.01 564.138 364.882 564.295 364.806 564.477C364.73 564.66 364.711 564.861 364.749 565.055C364.788 565.249 364.883 565.427 365.023 565.567C365.163 565.707 365.341 565.802 365.535 565.841C365.729 565.879 365.93 565.86 366.113 565.784C366.295 565.708 366.452 565.58 366.561 565.416C366.671 565.251 366.73 565.058 366.73 564.86C366.727 564.597 366.621 564.345 366.434 564.159C366.246 563.974 365.993 563.87 365.73 563.87V563.86Z" fill="#262424"/>
<path id="Vector_54" d="M403.75 583.34C403.307 583.339 402.871 583.229 402.48 583.02C376.65 569.36 360.13 580.75 359.48 581.24C358.894 581.633 358.178 581.784 357.484 581.659C356.789 581.535 356.17 581.145 355.758 580.573C355.345 580 355.171 579.29 355.272 578.592C355.373 577.893 355.742 577.262 356.3 576.83C357.09 576.25 376.11 562.9 405.07 578.22C405.608 578.507 406.035 578.967 406.28 579.525C406.526 580.084 406.577 580.709 406.424 581.299C406.272 581.89 405.926 582.413 405.441 582.783C404.955 583.153 404.36 583.349 403.75 583.34Z" fill="#262424"/>
<path id="Vector_55" d="M502.56 795.45C493.976 795.398 485.474 793.782 477.47 790.68C477.136 790.554 476.83 790.363 476.569 790.119C476.309 789.874 476.099 789.581 475.952 789.256C475.804 788.93 475.723 788.579 475.711 788.222C475.7 787.865 475.759 787.509 475.885 787.175C476.011 786.841 476.202 786.535 476.446 786.274C476.69 786.014 476.984 785.804 477.309 785.657C477.635 785.509 477.986 785.428 478.343 785.416C478.7 785.405 479.056 785.464 479.39 785.59C517.91 800.13 551.68 775.69 563.9 745.3C573.43 721.6 570.13 692.18 541.29 679.86C540.954 679.725 540.648 679.524 540.391 679.269C540.134 679.014 539.93 678.71 539.792 678.376C539.653 678.041 539.583 677.682 539.586 677.32C539.588 676.957 539.662 676.599 539.805 676.266C539.947 675.933 540.155 675.632 540.416 675.381C540.676 675.129 540.984 674.932 541.322 674.801C541.659 674.67 542.02 674.608 542.382 674.618C542.744 674.628 543.1 674.71 543.43 674.86C575.65 688.62 579.43 721.18 568.95 747.33C562.16 764.21 549.54 778.71 534.33 787.12C524.619 792.549 513.685 795.416 502.56 795.45V795.45Z" fill="#262424"/>
<path id="Vector_56" d="M388.64 697.89C388.112 697.889 387.596 697.735 387.154 697.446C386.712 697.157 386.364 696.746 386.152 696.263C385.94 695.779 385.873 695.244 385.96 694.724C386.047 694.203 386.283 693.719 386.64 693.33L418.95 658.33C419.192 658.067 419.484 657.855 419.808 657.705C420.133 657.555 420.483 657.471 420.84 657.456C421.197 657.442 421.554 657.498 421.889 657.621C422.225 657.745 422.532 657.933 422.795 658.175C423.058 658.417 423.27 658.709 423.42 659.033C423.57 659.358 423.654 659.708 423.669 660.065C423.683 660.422 423.627 660.779 423.504 661.114C423.38 661.45 423.192 661.757 422.95 662.02L390.64 697.02C390.385 697.296 390.076 697.515 389.731 697.665C389.387 697.815 389.015 697.891 388.64 697.89V697.89Z" fill="#262424"/>
<path id="Vector_57" d="M391 729.34C391.006 734.516 390.057 739.649 388.2 744.48C368.26 732.48 355.5 723.48 355.5 723.48C353.7 711.85 352.41 700.1 351.5 688.48H351.76C373.47 688.55 391 706.81 391 729.34Z" fill="white"/>
<g id="fluent:design-ideas-20-regular">
<g id="Group">
<path id="Vector_58" d="M1134.9 684.6C1128.72 684.6 1122.95 686.229 1118.04 689.068C1117.53 686.5 1116.6 684.023 1115.29 681.724C1121.46 678.501 1128.41 676.853 1135.45 676.944C1142.5 677.035 1149.4 678.862 1155.47 682.243C1161.54 685.624 1166.57 690.442 1170.07 696.222C1173.56 702.002 1175.4 708.544 1175.4 715.2H1195.66C1198.88 715.202 1201.97 716.412 1204.24 718.564C1206.52 720.715 1207.8 723.633 1207.8 726.675V772.575C1207.8 775.618 1206.52 778.537 1204.24 780.689C1201.96 782.841 1198.87 784.05 1195.65 784.05H1147.05C1143.83 784.05 1140.74 782.841 1138.46 780.689C1136.18 778.537 1134.9 775.618 1134.9 772.575V753.45C1129.27 753.457 1123.69 752.349 1118.54 750.199C1118.64 747.598 1118.7 744.867 1118.7 741.975V741.707C1123.46 744.308 1129 745.8 1134.9 745.8V726.675C1134.9 723.632 1136.18 720.713 1138.46 718.561C1140.74 716.409 1143.83 715.2 1147.05 715.2H1167.3C1167.3 707.084 1163.89 699.301 1157.81 693.563C1151.73 687.824 1143.49 684.6 1134.9 684.6ZM1174.59 722.85C1173 730.198 1169.15 736.943 1163.54 742.247C1157.92 747.551 1150.78 751.18 1143 752.685V772.575C1143 773.589 1143.43 774.562 1144.19 775.28C1144.95 775.997 1145.98 776.4 1147.05 776.4H1195.65C1196.72 776.4 1197.75 775.997 1198.51 775.28C1199.27 774.562 1199.7 773.589 1199.7 772.575V726.675C1199.7 725.661 1199.27 724.688 1198.51 723.97C1197.75 723.253 1196.72 722.85 1195.65 722.85H1174.59ZM1166.28 722.85H1147.05C1145.98 722.85 1144.95 723.253 1144.19 723.97C1143.43 724.688 1143 725.661 1143 726.675V744.836C1148.6 743.465 1153.72 740.703 1157.81 736.838C1161.9 732.972 1164.83 728.142 1166.28 722.85V722.85ZM1099.11 670.256C1099.78 670.812 1100.24 671.561 1100.41 672.389C1100.59 673.216 1100.47 674.075 1100.07 674.831C1100 675.055 1099.97 675.286 1099.96 675.519C1099.96 676.001 1100.09 676.919 1101.32 678.067C1101.91 678.625 1102.36 679.023 1102.86 679.459C1103.26 679.811 1103.69 680.178 1104.23 680.683C1105.29 681.632 1106.4 682.749 1107.39 684.149C1109.46 687.079 1110.6 690.743 1110.6 696.075C1110.6 702.6 1108.04 708.162 1104.05 711.574L1104.57 712.14C1106.83 714.772 1108.15 718.183 1108.98 721.549C1110.6 728.205 1110.6 736.207 1110.6 741.784V741.975C1110.6 763.296 1107.53 775.39 1104.15 782.306C1102.45 785.787 1100.65 788.005 1099.08 789.397C1098.45 789.973 1097.75 790.481 1096.99 790.912C1096.65 791.108 1096.29 791.28 1095.91 791.425C1095.91 791.425 1095 791.7 1094.4 791.7C1093.8 791.7 1092.89 791.425 1092.89 791.425C1092.51 791.288 1092.15 791.116 1091.81 790.912C1091.05 790.481 1090.35 789.973 1089.72 789.397C1088.15 787.997 1086.35 785.787 1084.65 782.306C1081.27 775.39 1078.2 763.296 1078.2 741.975V741.784C1078.2 736.199 1078.2 728.205 1079.82 721.549C1080.65 718.183 1081.97 714.772 1084.23 712.14C1084.4 711.949 1084.57 711.757 1084.75 711.574C1080.76 708.162 1078.2 702.6 1078.2 696.075C1078.2 693.581 1078.9 690.605 1079.88 687.859C1080.85 685.105 1082.21 682.259 1083.78 679.964C1085.65 676.981 1088.28 674.479 1090.33 672.796C1091.44 671.867 1092.61 670.991 1093.82 670.172L1094.07 670.019L1094.14 669.966L1094.17 669.95L1094.18 669.943C1094.92 669.475 1095.81 669.252 1096.7 669.309C1097.59 669.366 1098.44 669.699 1099.11 670.256V670.256ZM1094.4 707.55C1097.53 707.542 1102.5 704.26 1102.5 696.075C1102.5 691.845 1101.62 689.771 1100.65 688.394C1100.05 687.59 1099.37 686.849 1098.61 686.184L1097.61 685.296C1096.95 684.715 1096.18 684.042 1095.58 683.483C1094.7 682.655 1093.94 681.715 1093.32 680.691C1092.29 681.715 1091.38 682.844 1090.62 684.057C1089.48 685.702 1088.38 687.958 1087.56 690.284C1086.72 692.655 1086.3 694.752 1086.3 696.075C1086.3 704.276 1091.28 707.55 1094.4 707.55H1094.42H1094.4ZM1090.51 716.975C1089.36 718.298 1088.41 720.41 1087.71 723.271C1086.32 728.993 1086.3 736.184 1086.3 741.975C1086.3 762.729 1089.31 773.585 1092 779.1C1092.89 780.913 1093.73 782.122 1094.4 782.925C1095.07 782.122 1095.91 780.913 1096.8 779.1C1099.49 773.585 1102.5 762.729 1102.5 741.975C1102.5 736.184 1102.48 728.993 1101.08 723.271C1100.39 720.41 1099.43 718.298 1098.29 716.975C1097.84 716.403 1097.25 715.943 1096.58 715.633C1095.9 715.324 1095.15 715.175 1094.4 715.2H1094.38C1093.63 715.177 1092.89 715.327 1092.22 715.636C1091.54 715.945 1090.96 716.405 1090.51 716.975V716.975Z" fill="#F5F5F5"/>
</g>
</g>
<g id="clarity:talk-bubbles-line">
<path id="Vector_59" d="M1293.78 413.278C1293.78 413.933 1293.51 414.562 1293.03 415.026C1292.55 415.49 1291.9 415.75 1291.22 415.75H1255.44C1254.88 415.75 1254.35 416.244 1253.89 416.566L1245.22 423.167V383.611C1245.22 382.955 1245.49 382.327 1245.97 381.863C1246.45 381.399 1247.1 381.139 1247.78 381.139H1257.64V376.194H1247.78C1245.74 376.194 1243.79 376.976 1242.36 378.367C1240.92 379.758 1240.11 381.644 1240.11 383.611V428.111C1240.11 428.57 1240.25 429.019 1240.5 429.408C1240.76 429.797 1241.12 430.109 1241.54 430.311C1241.95 430.492 1242.41 430.564 1242.85 430.521C1243.3 430.477 1243.73 430.32 1244.1 430.064L1257.26 420.694H1291.61C1292.57 420.722 1293.54 420.557 1294.44 420.21C1295.34 419.862 1296.15 419.34 1296.84 418.675C1297.52 418.01 1298.05 417.216 1298.41 416.343C1298.76 415.47 1298.92 414.536 1298.89 413.599V410.806H1293.78V413.278Z" fill="#F5F5F5"/>
<path id="Vector_60" d="M1314.22 358.889H1270.78C1268.74 358.889 1266.79 359.67 1265.36 361.061C1263.92 362.452 1263.11 364.339 1263.11 366.306V395.972C1263.11 397.939 1263.92 399.826 1265.36 401.217C1266.79 402.607 1268.74 403.389 1270.78 403.389H1305.41L1317.62 412.561C1317.98 412.821 1318.41 412.983 1318.86 413.03C1319.31 413.078 1319.76 413.01 1320.18 412.833C1320.61 412.632 1320.98 412.317 1321.24 411.924C1321.49 411.53 1321.63 411.074 1321.63 410.608V366.306C1321.63 364.381 1320.86 362.531 1319.48 361.147C1318.1 359.763 1316.21 358.953 1314.22 358.889V358.889ZM1316.78 405.713L1307.83 398.964C1307.39 398.629 1306.84 398.446 1306.27 398.444H1270.78C1270.1 398.444 1269.45 398.184 1268.97 397.72C1268.49 397.257 1268.22 396.628 1268.22 395.972V366.306C1268.22 365.65 1268.49 365.021 1268.97 364.557C1269.45 364.094 1270.1 363.833 1270.78 363.833H1314.22C1314.91 363.893 1315.54 364.193 1316.01 364.676C1316.48 365.158 1316.76 365.791 1316.78 366.454V405.713Z" fill="#F5F5F5"/>
</g>
<g id="bx:bx-code-alt">
<path id="Vector_61" d="M1011.93 188.865L1021.41 177.801L990.891 155L1021.41 132.199L1011.93 121.135L974.01 149.468C973.122 150.131 972.405 150.973 971.912 151.931C971.419 152.888 971.163 153.937 971.163 155C971.163 156.063 971.419 157.111 971.912 158.069C972.405 159.027 973.122 159.868 974.01 160.532L1011.93 188.865ZM1082.07 121.135L1072.59 132.199L1103.11 155L1072.59 177.801L1082.07 188.865L1119.99 160.532C1120.88 159.868 1121.6 159.027 1122.09 158.069C1122.58 157.111 1122.84 156.063 1122.84 155C1122.84 153.937 1122.58 152.888 1122.09 151.931C1121.6 150.973 1120.88 150.131 1119.99 149.468L1082.07 121.135ZM1069.57 92.78L1039.23 220.28L1024.42 217.206L1054.76 89.7058L1069.57 92.78Z" fill="#F5F5F5"/>
</g>
</g>
</svg>
